<svg version="1.1" xmlns="http://www.w3.org/2000/svg" xmlns:xlink="http://www.w3.org/1999/xlink" x="0px" y="0px"
	 width="800px" height="400px" viewBox="0 0 800 400" style="enable-background:new 0 0 800 400;" xml:space="preserve">
<style type="text/css">
	.st0{opacity:0.0;}
	.st1{fill:RGBA(0,156,255,0.06);stroke:RGBA(0,156,255,0.85);stroke-width:0.4;stroke-miterlimit:10;}
	.st2{fill:none;stroke:RGBA(0,156,255,0.5);stroke-width:0.3;stroke-miterlimit:10;}
</style>
<rect id="SEA" x="-1" y="-1" class="st0" width="802" height="402"/>
<g>
	<path class="st1" d="M802.4,56.2c-3,1-6,1.1-8.2,0.2c0.2,0.9,0.5,1.5,1.5,1.4c0.9-0.1,1.5,0.2,1.7,1.2c0.2,1,1.6,1.3,1.9,2.3
		c-0.5,0.9-1.3,0.8-2.1,0.6c-0.9-0.2-1.8-0.1-2.7-0.5c-0.2-0.1-0.4-0.2-0.5-0.1c-4,2.1-8.7,2.2-12.6,4.6c-0.9,0.5-2.1,0.3-2.4,1.8
		c-3.1-2.9-5.9-1.4-8.9-0.3c-0.1-0.1-0.2-0.2-0.2-0.4c0-0.2,0-0.4-0.1-0.7c-1.1,0.3-2.1,0.7-2.8,1.5c-2-1-2.3-0.9-3.7,1.1
		c-0.4,0.5-0.9,1.1-1.5,1.4c-0.5,0.3-1.2,0.6-1.1,1.4c0.7,0.8,1.8,0,2.7,0.7c-0.5,0.7-2,1.6,0,2.3c0.3,0.1,0.4,0.5,0.2,0.8
		c-0.2,0.5-0.8,0.7-1.1,0.4c-1.2-0.9-1.6,0.3-2.2,0.8c-0.8,0.8,0.1,1.4,0.6,1.9c-0.4,0.9-1.1,0.8-1.8,0.8c-0.6,0-1.3-0.1-1.9,0.2
		c-0.9,0.5-1.8,1-0.8,2.3c-0.8,0.2-1.5,0.4-2.2,0.6c-0.4,0.1-0.9,0.2-1,0.8c-0.3,2.3-2.3,2.7-4,3.9c-1.1-3.2-2.3-6.1-2.7-9.2
		c-0.2-1.6,0.4-2.7,1.6-4.1c1.6-1.7,3.6-2,5.4-3.1c2.2-1.4,4.4-2.7,6.6-4.1c0.8-0.5,1.5-0.9,2.4-1.1c1.2-0.3,2.1-0.8,2.4-2.1
		c0.2-0.8,0.4-2,1.9-1.9c-1.7-0.3-3.1-0.4-4.2,1.3c-0.5,0.8-1.9,1-2.8,1.5c-0.9,0.4-1.8,0.8-2.7,1.2c-0.5-0.8-1.6-1.3-0.3-2.5
		c-1.8,0.5-3.4-0.5-5-0.1c-1.3,0.3-2.6,0.4-3.6,1.5c-0.8,0.8-1.8,1.6-3.1,1.9c-0.8,0.2-1.4,0.7-1.8,1.4c0.3,0.9,1.2,0.3,1.8,0.9
		c-2.7,0.8-5.5,0.3-8.2,1.1c0-1,0.9-0.5,1-1.1c-0.1-0.5-0.7-0.6-1-0.6c-1.3,0.1-2.6,0.1-3.8-0.5c-0.2-0.1-0.5,0-0.6,0.1
		c-1.7,1.6-3.8,0.6-5.7,0.7c-0.8,0-1.3,0.5-1.9,0.6c-3-0.8-5.9-1.1-8.7,0.4c-4.9,2.7-9.4,6.2-14.5,8.5c-0.3,0.1-0.6,0.2-0.7,0.8
		c0.9,1,2.1,0.1,3.1,0.3c0.6,0.5-0.3,1.1,0.2,1.8c0.6,0.2,1.5-0.7,2.2,0.4c0.2,0.3,1.2,0.1,1.8-0.3c1.4-1.2,2.9-1.2,4.3-0.1
		c1.1,0.9,1.3,1.3,2.3,3.9c-1.3,1.3-2.1,2.8-1.9,4.8c0.1,1.6-0.4,3.2-2.1,4.1c-0.8,0.4-1.2,1.4-1.7,2.1c-1.5,2-3.5,3.7-5.4,5.3
		c-1.7,1.5-3.1,3.5-5.6,4.1c-1,0.2-1.9,0.3-2.8-0.2c-1.1-0.6-2.2-0.4-3.1,0.4c-0.7,0.6-1.5,1.1-2.2,1.6c-0.3,0.2-0.7,0.5-0.8,0.9
		c-0.2,2.4-2.1,3-3.9,3.7c-0.6,0.2-1.1,0.5-1.3,1.1c-0.2,0.8,0.4,1,0.9,1.3c2.3,1.6,3.5,3.9,3.6,6.7c0,0.8-0.5,1.6-1.3,1.7
		c-1.8,0.4-3.6,0.7-5.4,1.8c-0.2-1.2-0.5-2.1,0.1-3.1c0.5-0.8-0.3-1.7-0.7-2.4c0.1-0.7,1-0.2,1.2-0.7c-0.4-1.4-1.8-1.5-2.6-1.3
		c-0.9,0.2-1.2-0.3-1.6-0.6c-0.5-0.5-0.1-0.9,0.4-1.3c0.7-0.5-0.1-1.4,0.7-1.9c-3.5-1.7-6.2-0.5-8.9,1.3c-0.3-1.6,0.5-2.7,1.7-3.5
		c-1.3-1.4-2-1.6-3.1-0.4c-0.5,0.6-1.1,0.9-1.8,1.1c-0.6,0.2-1.1,0.4-1.4,1c-0.7,1.3-1.8,1.3-3,0.9c-0.6,0.3-0.6,0.9-0.9,1.4
		c0.7,1.3,2,0.9,2.9,1.3c0.4,0.5,0,1.2,0.4,1.8c0.9,0.5,1.6,0,2.2-0.6c0.8-0.7,1.6-0.9,2.5-0.3c0.7,0.5,1.4,0.2,2.1,0.3
		c0.4,0,0.7,0.3,0.7,0.8c-0.1,0.4-0.2,0.6-0.6,0.6c-2.3-0.1-3.8,1.4-5.2,2.8c-0.4,0.5-1.1,0.7-1.5,1.6c2.1,1,3.2,2.7,3.9,4.9
		c0.2,0.7,1.1,1.2,2,1.7c-0.5,0.8-0.3,1.6,0,2.2c-0.6,0.6-1.5,0.4-2.1,1.2c0.9,0.1,1.4,0.7,2.2,1.1c-0.1,0.6-0.2,1.3-0.4,2
		c-0.3,0.7-0.1,1.7-1.3,1.9c-0.4,0.1-0.7,0.8-0.9,1.2c-0.2,0.7-0.6,1.2-1.2,1.5c-0.8,0.4-1.1,1-1.2,1.9c-0.1,1.3-1.1,2.2-2,2.9
		c-0.8,0.5-1.3,1.3-2,1.7c-2.2,1.4-4.3,3.6-7.3,2.9c-0.3-0.1-0.6,0.2-0.9,0.2c-0.2,0-0.5-0.1-0.8-0.2c-0.4,1.4-1.6,1.9-2.9,2
		c-1.2,0.1-2.2,0.6-3.4,0.8c-1.2,0.2-1.7,0.8-0.7,2c-1.7,0.4-2,0-1.7-2.3c-1.6,0-3.2-0.6-4.6,0.5c-1.8,1.5-3.9,2.8-4.4,5.3
		c1.9,2.1,3.4,4.2,5.5,6.1c2,1.8,3.3,4.8,2.4,7.9c-0.1,0.4-0.1,0.9-0.1,1.4c0,0.4,0.1,0.9-0.3,1.1c-1.4,1-2.6,2.4-4.6,2.3
		c-0.4,2.6-3.1,2.7-4.6,4.6c-0.4-1.5,0.3-2.6,0.1-3.8c-0.7-0.3-1.5-0.6-2.1-1c-0.8-0.5-1.9-0.8-2.3-2c-0.5-1.6-1.5-2.7-3.5-2.6
		c-1.3,0.1-1.1-1-1-1.7c-1.2-0.4-2-0.4-2,1.1c0,1.6-0.6,3-1.3,4.4c-0.3,0.7-0.5,1.5-0.6,2.2c-0.1,0.5,0,1.2,0.5,1.3
		c1.8,0.3,1.8,1.8,2.1,3.1c0.3,1.3,0.7,1.9,2.1,2.3c1.3,0.4,2.6,1.5,3.6,2.8c1,1.2,1.6,2.4,1.2,4.1c-0.3,1.1-0.1,2.2,0.8,3.1
		c0.5,0.5,0.7,1.2,0.9,2c-0.9,0.2-1.8,0.3-2.6-0.4c-0.1-0.1-0.3-0.2-0.5-0.3c-3.4-1.4-4.7-4.4-5.3-7.7c-0.5-2.4-2-4-3.1-5.9
		c-0.3-0.5-1-0.6-1.4-0.6c-0.3-0.5-0.4-1-0.2-1.3c0.9-1.7,0.5-3.6,1-5.3c0.4-1.6,0.2-3.4-0.7-5c-0.9-1.6-1.5-3.3-1.5-5.2
		c0-1.4-1.1-2.1-1.6-3.3c0,2.3-2.7,1.8-3.2,3.4c-1.1,0.1-1.8-1.2-3.1-0.5c0.6-2.7,1.8-5.3-1.2-7.1c0.4-0.4,0.5-1-0.1-1.3
		c-2.5-1.3-3.8-3.5-4.2-6c-0.7-0.6-1.5,0.1-2-0.5c-0.3,0.9-0.1,1.9-1.8,1.8c-1.2,0-2.5,0.4-3.8,0.3c-1.3-0.1-2.4,0.9-2.8,2.2
		c-0.4,1.1-1.1,1.9-2.3,2.2c-1,0.2-1.8,0.7-2.4,1.5c-1.2,1.6-2.8,2.8-4.6,3.9c-0.2,0.1-0.6,0.2-0.6,0.4c-0.9,1.8-2.7,2.3-4.3,3.1
		c-0.8,0.4-0.9,1.2-0.9,2c0,0.8,0,1.8,0.2,2.5c0.5,1.4-0.1,2.4-0.5,3.5c-0.2,0.6-0.6,1.2-0.5,1.9c0.1,1.1,0.4,2.2-1.1,2.8
		c-0.4,0.1-0.6,1-0.2,1.8c-2.1-0.2-2,2.5-3.9,2.6c-1-0.6-1.7-1.5-2-2.7c-0.5-2-1.3-3.9-2.5-5.7c-0.5-0.8-0.7-1.7-1-2.5
		c-0.4-1.6-1.1-3-1.9-4.5c-2-3.4-2.3-7.3-2.9-11c-0.2-0.9,1.3-1.5,0.3-2.5c-0.7-0.6-0.1-1.7-0.7-2.3c-0.5,0-0.8,0.2-0.7,0.5
		c0.5,1.2-0.3,1.7-1.1,2.1c-1,0.4-2,1-3.1,0.1c-1.1-1-2.2-2-3.2-3.2c1-0.3,2.2,0.3,3.2-1c-2.7,0.3-4.3-1.4-6.1-2.6
		c-0.9-0.6-1.4-1.7-2-2.7c-0.4-0.6-0.7-0.8-1.4-0.6c-3.3,0.7-6.7,0.1-10,0.8c-0.4,0.1-0.8,0.1-1.2-0.1c-2-1-4.2-0.5-6.3-1
		c-1.3-0.3-2.3-0.6-2.8-2c-0.6-1.7-1.6-2.2-3.1-1.2c-2.8,1.8-4.7,0.3-6.8-1.2c-0.2-0.2-0.4-0.4-0.6-0.4c-2-0.2-2.6-1.8-3.3-3.2
		c-0.5-1.1-0.9-2.2-2.4-2c-0.6,0.1-0.7-0.7-1.3-0.9c-0.5,0.5-0.9,1-1.8,1c-0.7,0-1,0.7-0.7,1.1c1.1,1.5,1.3,3.7,3,4.8
		c0.5,0.4,1.2,0.5,1.7,1.1c-0.7,1.9,1,3.1,1.6,4.8c0.3-1.1-0.2-2.3,1-3.3c1.2,0.7,0.8,1.9,0.6,2.9c-0.2,1.4,0.1,1.7,1.4,1.6
		c0.1,0,0.1-0.1,0.2-0.1c4.2,1.2,6.3-2.3,9.1-4.6c-0.2,3.7,1.7,5.2,4.8,5.9c1.3,0.3,1.7,1.9,2.9,2.4c-0.8,2-2.8,4.3-4.2,4.8
		c-0.4,0.8-0.2,1.6-0.2,2.5c-1.1,0.6-2.6,0.6-2.9,2.2c-0.1,0.3-0.5,0.4-0.8,0.4c-1.1-0.1-1.8,0.3-2,1.6c-0.1,0.5-0.7,0.7-1.3,0.7
		c-2.4-0.1-4.5,0.3-5.7,2.8c-0.3,0.7-1.2,0.8-1.8,1c-1.8,0.7-3.7,1.4-5.5,2.2c-1.8,0.8-3.7,2.1-6,1.9c-0.6-0.1-1,0.2-1.4,0.6
		c-0.7,0.7-1.7,0.9-2.7,1.1c-1.1,0.2-2-0.4-2.1-1.5c-0.2-2.3-1.5-4.4-1.3-6.8c0.1-1-0.7-1.9-1.5-2.7c-0.4-0.4-1-0.7-1.2-1.3
		c-1-2.2-2-4.3-4.4-5.5c-0.8-0.4-1.1-1.5-1.1-2.6c-0.1-2.4-1-4.4-3.3-5.5c-0.5-0.2-1-0.5-0.9-1.2c0.1-1.1-0.6-1.9-1.2-2.6
		c-1.4-1.6-2.2-3.7-4.1-5c0.1-0.7,0.2-1.4,0.4-2.4c-1.4,0.8-0.9,2.4-1.8,3.2c-0.9,0.1-1.1-0.9-1.8-1.1c-0.4-1.2-1.1-2.2-2.1-3.4
		c-0.1,1.8,0.6,2.9,1.8,3.8c1.4,3.1,2.8,6.1,4.9,8.8c0,0.1,0.1,0.1,0.1,0.1c-0.5,2.2,1.5,3,2.5,4.3c0.8,1,1.2,2.3,1.2,3.6
		c-0.1,2.1,0.2,4,2.5,5c0.7,0.3,1,1,1.2,1.7c0.2,0.7,0.4,1.4,0.6,2.1c0.3,1.9,1.6,2.9,3.3,3.8c1.5,0.8,2.9,2,4,3.5
		c0.7,1,2,1.3,2.4,2.6c-0.2,0.5-0.9,0.6-1.3,0.9c0.1,0.2,0.1,0.3,0.1,0.4c1,0.1,1.5,0.7,2,1.4c0.8,1.2,1.8,1.5,3,0.8
		c0.8-0.4,1.6-0.6,2.6-0.4c1.3,0.2,2.3-1.1,3.7-1c0.7,0,1.5-0.3,2.3-0.2c1.1,0.1,2-0.3,2.9-0.9c0.6-0.5,1.3-0.7,1.9,0
		c-0.1,1.9-0.2,3.9-1,5.4c-1.9,3.3-3.4,6.8-5.6,9.9c-2.2,3.1-4.7,5.8-8.1,7.7c-2.5,1.4-4.3,3.7-6,6c-0.5,0.7-1,1.4-1.8,1.9
		c-0.7,0.5-1.5,1.3-2,2.4c-0.6,1.2-1,2.6-2,3.7c-1.1,1.2-0.9,2.7,0.2,4c0.4,0.5,0.4,0.9,0.3,1.4c-0.3,1.4,0,2.8,0.2,4.2
		c0.1,0.9,0.6,1.6,1.4,2c0.7,0.4,1,0.9,0.9,1.8c-0.6,2.4-0.2,4.9,0.2,7.3c0.3,1.6-0.1,2.6-0.9,3.6c-1.1,1.6-2.7,2.7-4.5,3.2
		c-1.6,0.5-2.9,1.3-4,2.6c-0.8,1-1.9,1.8-3,2.5c-0.7,0.4-1.2,1.2-0.7,1.8c1,1.3,0.8,2.9,1.4,4.3c1.2,2.7-0.1,5-2.9,6
		c-1.2,0.4-2.5,0.8-3.3,2.1c0.9,0.8,0.9,1.8,0.5,2.9c-0.6,1.5-0.8,3.2-2.5,4.2c-0.8,0.5-1.3,1.4-1.8,2.2c-2.1,3.2-5.1,5.5-8.2,7.6
		c-1.3,0.9-3,0.5-4.3,1.2c-1.6,0.8-3.1-0.1-4.7,0c-2.4,0.3-4.6,0.8-6.8,1.6c-0.5,0.2-1.1,0.2-1.4-0.3c-0.5-0.8-1.4-0.8-2.2-1.2
		c0.1-1-0.4-1.8-1-2.7c1.4-1,0.9-2.3,0.2-3.3c-1.9-2.7-2.6-6.1-5.3-8.3c-1.3-1.1-1.5-3.1-1.6-4.7c-0.1-1.5-0.7-2.9-0.9-4.4
		c-0.1-0.7-0.5-1.3-0.1-2.1c0.3-0.6-0.1-1.1-0.5-1.6c-2-2.5-3.1-5.7-5-8.4c-1.2-1.7-0.7-3.8-0.2-5.6c0.3-1.2,0.7-2.3,0.9-3.5
		c0.2-1.3,0.8-2.5,1.8-3.4c1.7-1.8,2.1-3.7,0.8-5.8c-0.6-1-1.2-1.8-0.2-3c0.4-0.5,0.1-1.1-0.2-1.6c-0.4-0.6-0.6-1.3-0.9-1.9
		c-0.6-1.5-1.4-2.9-1.8-4.5c-0.4-1.7-2-2.6-3.2-3.9c-1.5-1.6-2.9-3.3-3.8-5.6c1.1-1.2,1.4-2.8,1.3-4.7c-0.1-1,0.9-2,0.7-3.2
		c-0.2-1.3,0.1-2.7-1.5-3.2c-0.3-0.1-0.5-0.4-0.6-0.7c-0.1-0.5-0.8-0.7-0.9-0.6c-1,1.1-2.3,0.4-3.5,0.7c-2.1,0.6-2.9,0.1-3.5-2.1
		c-0.5-1.5-2.5-2.7-4.1-2.4c-0.8,0.1-1.7,0.1-2.5,0.2c-3.1,0.6-5.9,2-8.8,3.1c-0.6,0.2-1.2,0.4-1.8,0.1c-2.9-1.3-5.9-1.4-8.6,0.1
		c-2.6,1.5-4.7,0.7-6.5-0.8c-1.8-1.6-3.9-2.7-5.8-4.2c-0.8-0.6-1.4-1.5-2.3-2c-0.4-0.2-0.4-0.6-0.5-1.1c-0.2-1.5-0.9-2.9-2.4-3.7
		c-1.1-0.6-1.5-1.8-2.6-2.4c-0.6-0.4,0.3-0.9,0-1.4c-3,0.1-4-1.5-2.8-3.9c-0.3-1-0.9-1.8-1.8-2.6c2.2-1.8,2.2-4.4,2.9-6.8
		c0.1-0.5,0.1-0.9,0-1.3c-0.5-1.2-0.9-2.4-0.5-3.7c0.2-0.5-0.3-1.1-0.7-1.3c-1.6-0.7-1.1-1.9-0.4-2.7c1.5-1.8,1.8-4.4,3.9-5.7
		c0.5-2.3,2-3.9,3.5-5.5c0.9-1,1.4-2,2.9-2.4c2.1-0.5,3.6-2,5-3.6c0.5-0.6,0.8-1.3,0.3-2c-0.6-1-0.2-1.7,0.4-2.5
		c0.3-0.4,0.6-0.8,0.7-1.2c0.2-1.4,1.1-2.2,2.2-2.5c2.6-0.7,4.2-2.4,5-4.9c0.1-0.4,0.4-0.7,0.6-1c-0.8-0.3-1.2-1-1.6-1.6
		c-0.5-0.8-1.3-1.1-2-0.9c-1.1,0.4-2.2,0.1-3.2,0.1c-0.1-0.1-0.2-0.2-0.3-0.3c0.3-0.8,0.1-1.7,0.2-2.5c-0.6-0.2-1-0.6-1.6-1.1
		c1.8-2.9,2.5-6,1-9.6c1.3-0.3,2.5-1.3,4.5-1.2c2.9,0.3,5.8,0.7,8.7,0.5c0.7-0.1,1.3-0.1,1.9,0.2c1.3,0.5,1.8-0.1,2-1.3
		c0.2-1,0.3-2,0.5-3.1c0.2-1.1,0.4-2.2-1.2-2.5c-0.2,0-0.3-0.2-0.4-0.4c-0.8-1.9-2.6-2.1-4.3-2.5c-1.2-0.3-1.3-0.3-2-1.6
		c1.6-0.2,3-1.2,4.7-0.3c0.5,0.3,1.4-0.1,2-0.2c0.6-0.7-0.2-1.2-0.2-1.8c1-0.7,1.7,0.6,2.7,0.4c0.7-0.1,1.3,0.3,1.8-0.6
		c0.2-0.4,0.8-0.6,1.4-0.6c0.8-0.1,1.5-0.3,1.5-1.4c0-0.7,0.6-0.9,1.2-1c2.3-0.5,4.4-1.3,5.6-3.6c0.3-0.6,1.1-1.1,1.2,0.4
		c0,0.8,0.7,0.5,1.1,0.2c0.3-0.7-0.8-0.9-0.3-1.9c2.3-0.4,4.9-0.9,7.5-1.3c-0.2-1-0.3-1.7-0.5-2.5c-0.1-0.3-0.1-0.8-0.3-0.9
		c-1.4-0.3-0.7-1.5-0.7-2.1c0-1,0.1-2.5,2-2.1c0.5,0.1,0.9-0.2,1.2-0.5c0.5-0.4,1-0.8,1.8-0.5c0.5,0.7-0.3,1.2-0.4,1.8
		c-0.1,0.9,0.9,0.7,1.4,1.3c-1.2,0.6-2.2,1.4-3,2.4c0.8,1,1.4,2.1,2.8,1.9c0.7-0.1,0.4,0.7,0.9,0.9c0.5-0.2,1.1-0.3,1.7-0.5
		c1.1-0.3,2-0.4,3.2,0c2.1,0.8,4.3,0.3,6.4-0.5c1.2-0.4,2.4-0.7,3.6-0.8c0.5,0,1.1-0.2,1.4,0.4c0.5,1.1,1.6,0.7,2,0.3
		c1.1-1,2.3-1.2,3.6-1c0.5-0.9,0-1.6-0.2-2.2c-0.3-1.9,0.8-3.5,2.7-3.8c0.9-0.1,1.3,0.4,1.9,0.8c1.2,0.8,1.1,0.8,2.6,0.4
		c0.5-0.7-0.6-1.5,0.5-2.3c-1.5,0-2.2-0.7-2.4-2c1.9-1,4.1-1.3,6.1-1c2.1,0.3,4-0.1,5.9-0.9c-1.3-1.5-1.3-1.3-3.1-1.2
		c-2.6,0.2-5.1,0.7-7.7,1.2c-2,0.3-3.5-1-5.2-1.4c-0.4-0.1-0.6-0.7-0.4-1.2c0.4-1.3-0.6-2.3-0.6-3.8c2.5-1.4,5.2-3,8.1-4.4
		c0.9-0.4,1-0.8,0.7-1.5c-1.7-1.1-3.7-0.6-5.5-0.9c-0.9-0.2-1.4,1.1-2.4,1.1c0.2,0.8-1.1,0.9-0.7,1.9c0.2,0.6-1,1.4-2,1.8
		c-1.5,0.5-3,1.1-4.5,1.8c-1.5,0.7-2,2-2.6,3.3c-0.3,0.7,0.1,1.5,1.1,1.7c1.1,0.3,2,1,3,1.6c-1.2,1.9-3.2,2.4-5.1,3
		c0.1,1.8-0.4,3.4-1.4,4.8c-0.5,0.7-1.2,0.6-1.9,0.6c-1,0-1.9-0.1-2.3,1.2c-0.2,0.7-1.3,0.4-1.9,0.6c-0.9,0.3-1.1-0.5-1.3-1.1
		c-1.1,0.2-0.6,1.5-1.4,1.8c-0.3,0.2-0.4,0-0.7-0.2c-0.5-0.3-1.5,0-1.4-1c0.1-0.9,0.8-0.6,1.5-0.7c0.9,0,1.3-0.9,2-1.7
		c-1.8-1.2-2.5-3.3-3.6-5.1c-0.4-0.7-0.9-1-1.7-0.7c-1.1,0.5-2.3,0.7-3.3,1.4c-2,1.3-4.1,1.6-6.2,0.4c-0.4-0.2-0.9-0.1-1.4-0.7
		c-0.2-0.4,1.1-1.8-1-1.6c0.7-0.7,1.5-0.6,1.5-1.5c-1.5-0.6-1.5-2.1-1.2-3.2c0.2-0.9,1.1-1.8,2.4-1.9c0.3,0,0.5,0,0.7-0.2
		c1.8-1.3,3.9-1.5,5.9-2.2c0.6-0.2,1.2-0.5,1.6-1.1c0.5-0.7,1.4-1.1,2.1-1.3c1.6-0.4,2.7-1.3,3.8-2.6c1.6-1.9,3.5-3.4,6-4.3
		c1.3-0.5,2.8-0.8,3.7-2c0.8-1.1,2.3-1.7,3.3-1.7c3.1-0.1,5.8-1.6,8.7-2.1c0.7-0.1,1.3,0.2,1.9,0.3c2.6-2,6.6-2.5,8.1-1
		c1-0.2,1.6-1.7,2.9-1.1c0.3,0.4-0.6,0.7,0,1.1c1.8-1.1,2.9-1,5.6,0.3c-0.7,0.7-1.7,0.3-2.5,0.7c0.1,0.7,0.6,0.7,1,0.6
		c1.4-0.3,2.8,0.4,4.2-0.1c0.8-0.2,1.6,0.6,2.4,0.9c1.3,0.5,2.6,0.5,3.9,0.5c2.8,0.1,5.4,0.5,7.9,1.8c1.2,0.7,2.6,0.6,4,1
		c1.2,0.3,2.2,0.7,2.5,2.3c-1.5,1.6-3.7,2-5.9,2c-2.6-0.1-5.3-0.3-7.9-0.9c-1.7-0.4-3.5-0.6-5.2-1.2c0.9,1.1,2.1,1.5,3.3,1.8
		c1,0.2,1.5,0.4,0.8,1.6c-0.5,1,0.5,2.2,1.2,2.3c1.9,0.3,3.6,1.6,5.6,1.2c0.3-0.1,0.7,0,0.9-0.4c-0.6-1.2-2.5-0.1-3-1.7
		c0.5-0.9,1.2-0.5,1.9-0.3c2,0.7,4.1,1.1,6.2,0.7c0-0.9-1.1-1-1-2.1c2.7-0.4,5-2.7,8.2-1.3c1.1,0.5,1.4-0.5,1.7-1.2
		c-0.1-0.9-0.9-0.8-1.3-1.3c0.7-0.7,1.5-1.4-0.1-2.7c2.5,0.5,4.8-0.7,6.2,1.7c-1.1,0.4-2.3,0-3.3,0.8c1.5,1.4,3.2,1.6,5,1.2
		c0.3-0.1,0.8,0,0.9-0.3c1-2.1,3.2-1.7,4.8-2.3c1.4-0.5,3.1-0.9,4.6-0.9c1.5,0.1,2.7-1,4-0.9c0.6,0.6-0.1,1,0.2,1.5
		c0.8-0.2,1.8,0.3,2.7-0.3c1.1-0.8,2.3-0.9,3.5-0.6c1.1,0.2,2,0,3-0.3c0.9-0.3,2.3-1.2,2.9,0.6c0.1,0.2,0.6,0.3,0.7,0.3
		c0.8-0.8,2-0.4,2.8-1c0.3-0.9-0.8-0.9-0.8-1.6c0-0.1,0.1-0.2,0.3-0.3c2.7-0.7,5.3-0.1,7.9,0.4c2.8,0.6,5.8,1,8.4,2.4
		c0.9,0.5,1.5,0.2,1.9-0.7c-1.5-0.8-2.4-2.6-4.4-2.2c0.1-1,1.2-0.8,1.3-1.8c0-0.7-1-0.4-1.4-0.8c-0.1-0.8,0.6-0.9,1.1-1
		c1.7-0.4,3.2-1,3.9-2.8c0.1-0.4,0.5-0.6,0.9-0.6c2.4,0.2,4.8-0.3,7.2,0.1c0.1,0,0.2,0.2,0.4,0.3c0,1.3-1.1,1.7-2,2.3
		c0,0.6,0.6,0.7,0.9,0.9c0.7,0.6,1,1.1,0.6,2.1c-0.7,1.8,0,3.1,1.7,3.9c-0.6,2-2.7,2.2-3.9,3.4c-1.7,1.7-3.5-0.2-5.1,0.7
		c3.8,1.4,6.3,1.9,11.9-2.4c0.4-0.7-0.7-1-0.4-1.5c0-0.3,0.2-0.5,0.3-0.5c1.2-0.5,2.4-0.4,3.6-0.3c1.6,0.1,1.9,0.6,1.8,2.5
		c0.1,0.3,0.4,0.3,0.6,0.4c0.2,0.1,0.5,0.2,0.8-0.1c0.4-0.6-0.5-0.4-0.5-0.8c0-0.5,0.7-0.3,0.8-0.8c-0.2-1.1-0.8-1.5-2-1.7
		c-1.7-0.2-3.3-0.4-5-0.3c-0.8,0-1.7,0.2-2.2-0.9c-0.5-1,0.3-1.4,0.7-2c0.1-0.1,0.1-0.2,0.1-0.4c-0.3-0.9-1.3-1.1-1.9-1.8
		c0.3-0.7,1-0.7,1.6-0.8c1-0.2,2.1-0.2,2.3-1.6c0.1-0.7,0.8-0.4,1.3-0.2c0.5,1-0.8,1.3-0.7,2.3c1,1.2,2.5,0.8,4,1
		c0-1.1-1.5-0.4-1.4-1.8c0-0.1,0.5,0,0.8,0c1.2,0.1,2.1,0.3,3.3-0.6c1.1-0.9,3-0.2,4.3,0.4c1.8,0.8,3.6,1.1,5.7,0.9
		c-0.3,1-2,0.9-1.3,2.3c1-1.7,1.8,0.8,2.9,0.3c0-1-1.6-1.7,0-2.7c-1.4-0.5-2.3-1.2-3.4-1.3c-1.8-0.1-2.8-0.9-3.4-2.8
		c5.3-0.5,10.6-0.6,16-0.6c-0.5-1.2-1.7-0.8-1.9-1.8c0.1-0.5,0.5-0.6,0.8-0.7c2.6-0.7,5.2-1.6,8-1.7c2.7,0,5.3-0.4,7.9-1
		c1.4-0.3,2.8-0.4,4.3,0.4c1.1,0.6,2.5-0.1,3.8-0.2c0.8-0.1,1.5-0.2,2.3,0c0.7,0.2,1.3,0.2,1.9-0.6c0.6-0.9,1.7-0.2,2.7-0.6
		c0.1-1,0.9-1.3,1.9-1.5c2.5-0.7,5-0.9,7.5-0.5c0.2,0.6-0.4,0.6-0.4,1c1.4,0.1,2.8,0.3,4.1,0.4c0.3,0.4-0.4,0.5,0,1
		c4.9-0.9,9.8-0.9,14.7,1c-0.1,1.5-1,2.5-2.7,2.6c-2.4,0.2-4.7,1.1-6.9,1.9c-2,0.7-4.1,0.9-6.1,1.7c2.6,0.4,5.1-0.2,7.7-0.6
		c0.3-0.1,0.6-0.1,0.6-0.6c0.1-0.9,0.9-0.8,1.3-0.5c1.4,0.8,2.9,0.8,4.4,0.5c0.9-0.2,1.1,0.6,1.5,1c2.4-0.9,4.9-0.9,7.4-0.8
		c0.8,0,1.5,0.2,2.3,0.2c0.3,0,0.5,0,0.8,0.1c3.5,1.5,3.9,1.6,7.6,1.3c0.4,0,0.8-0.1,1.2,0c1.2,0.3,2.2,0.4,2.9-1.1
		c0.5-0.9,1.7-0.9,2.5-0.6c2.3,0.6,4.6,0.6,6.9,0.7c0.6,0,1.2,0.1,1.7,0.7c-1.5,0.8-3.2,0.8-4.9,1.6c2.6,0.2,4.6,1.3,6.7,2.4
		c3,1.7,3.5,1.6,6.2-0.7c0.2-0.2,0.5-0.4,0.9-0.6c1.9,1.3,4.1,1.4,6.3,0.7c1.4-0.4,2.7,0,4,0.4c0.8,0.3,1.6,0.6,2.2-0.4
		c0.3-0.5,0.9-0.4,1.4-0.2c0.6,0.1,1.2,0.5,1.9,0.1c0.3-0.4,0.3-0.8,0.1-1.2c-0.4-0.3-1,0-1.5-0.3c0.2-0.3,0.4-0.5,0.8-0.5
		c1.4,0,2.7-0.4,4-0.7c1.6-0.4,3.2,0.3,4.8,0.3c1.2,0,2.5,0.2,3.7,0.3c1,0,1.3,0.6,1.7,1.7c2.7-1.8,5.6-1.2,8.4-0.6
		c0.1,0.7-0.7,0.3-0.8,0.8c0.1,0.1,0.3,0.2,0.4,0.2c0.7,0.3,1.5,0.3,2.3,0.3c0.7,0,1.4,0.1,1.9,0.5c1.6,1.5,3.4,1.1,5.2,0.9
		c3-0.4,6.1-0.7,9.1-0.3c0.8,0.1,1.7,0.2,2.5,0.5c1.5,0.5,1.5,0.5,1.8,2.1c1.9,0.3,1.9,0.3,2.8,1.3c2.6-0.9,5.3-1.2,8.1-0.7
		c1.7,0.3,3.6,0.6,5.4-0.2c0.7-0.3,1.2,0,1.8,0.3c2.1,0.8,4.1,2.3,6.5,1c0.1-0.9-1.1-0.9-1.2-1.6c0.2-0.5,0.7-0.6,1.2-0.6
		c6.7,0.5,15.5,0.4,22.1,2C802.4,50,802.4,53.1,802.4,56.2z M444.5,107.9c-2-1.5-3.9-2.8-6-3.5c-2.2-0.8-3.9-1.7-4.7-4
		c0-0.1-0.3-0.2-0.5-0.3c-0.7-0.1-0.9,1.1-1.5,0.8c-0.8-0.5-0.4-1.3-0.9-1.8c-0.9,0-1.6,0.4-2.4,0.7c-0.5,2.1,0.3,3.3,2.3,3.8
		c0.3,0.1,0.6,0.3,0.7,0.6c0.9,2.3,2.6,3.4,5.3,3.2c-0.3,1.1,0.4,1.3,1.1,1.5c1.3,0.4,2.6,0.9,3.7,1.8c0.5,0.4,0.8,0.9,0,1.4
		c-0.8-0.7-1.7-1.4-2.9-1.4c-0.3,0.4-0.8,0.7-0.8,1.5c0.3,0.5,1.4,0.5,1.1,1.7c-0.6,0.2-1.1,0.6-1.5,1.3c-0.2,0.4-0.6,1.3-1.2,1.1
		c-1.7-0.5-1.6,0.4-1.5,1.6c0.1,0.9-0.4,1.2-1.2,0.9c-1.7-0.6-3.3-1.4-5-2.1c0.4-1.2,1.4-1.2,2.1-1c1.3,0.5,2.5,0,3.8,0
		c1.2,0,1.8-0.7,2.1-1.6c0.3-0.9-0.3-2.1-0.9-2.4c-2-1-3.8-2.4-5.9-3.2c-2.3-1-4.7-2.2-6-4.7c-0.9-1.8-2.9-2.3-4.6-1.3
		c-1.1,0.6-2.3,1.2-3.4,1.9c-1,0.6-2.1,1-3.3,0.2c-0.8-0.5-1.8-0.4-2.6-0.5c-1.2-0.2-2.3,0.9-2.1,2.1c0.2,1.2-0.3,1.6-1.2,2
		c-1.7,0.8-3.9,0.9-5.1,2.8c-0.3,0.6-1.1,0.9-1.3,1.7c-0.2,0.8,0.8,1.1,0.8,2c-1.2,0.3-1.8,1.2-2.1,2.4c-0.9,0.2-1.9,0.1-2.3,1.2
		c-0.2,0.5-0.6,0.6-1.1,0.6c-0.9,0-1.8,0.1-2.7,0c-1.6,0-3,0.5-4.2,1.6c0.9,2.1,2.7,2.2,4.3,1.7c1.3-0.4,2.2,0.6,3.4,0.4
		c1.3-0.2,1.9-1.5,3.2-1.7c0.5-0.1,1.1,0.4,1.6-0.3c0.8-1.1,2.2-1.3,3.4-1.3c2.6,0,5.2-1.1,7.9-0.4c0.6,0.2,1.4-0.1,2-0.4
		c1.1-0.5,2.5-0.4,3.3-0.1c1.3,0.4,2.2,0.2,3.3-0.4c0.7-0.4,1.8-0.7,2.2-0.1c0.6,1,1.4,0.6,2.7,0.7c-1.7,1.1-1.9,1.9-0.5,2.9
		c0.7,0.5,0.2,1.2-0.3,1.6c-0.6,0.6-1.4,0.9-1.7,1.7c0.4,1.1,1.6,0.8,2.2,1.3c1.6,1.3,3.3,1.5,5.2,1.6c1.8,0.1,3.7,0.3,4.6,2.5
		c0.2,0.5,0.8,0.8,1.3,0.8c2.2,0.2,4.1,0.9,6,2c1.3,0.7,2.8-0.6,2.7-2.1c-0.1-0.5-0.2-1.1,0.1-1.5c0.8-1.6,5.1-2.5,6.3-1.2
		c0.8,0.8,1.6,1,2.5,1.2c2.1,0.5,4.1,1.3,6.2,1.4c0.9,0.1,1.9,0.3,2.8,0.7c1.2,0.4,2.6,0.8,4.1-0.1c1.3-0.8,2.9-1.2,4.7-0.2
		c1.3,0.7,3.7,1.2,4.8-0.3c1.7-2.2,2.5-4.9,3.5-7.5c0.1-0.2,0.1-0.6,0-0.8c-0.6-1.2,0-2.4,0.6-3.8c-1.1,0.7-1.8,1-2.8,0.5
		c-0.6-0.3-1.1,0.2-1.6,0.5c-1.5,1.1-2.7,1.1-4.2,0.1c-0.4-0.3-0.9-0.6-1.3-0.8c-1.5-0.7-1.9-0.5-2.7,1.2c-2.3-0.1-4.2-1.5-6.4-2
		c-0.4-0.1-0.4-0.5-0.4-0.8c-0.3-1-0.8-1.6-1.9-1.9c1.3-1.6,1.1-2.6-0.7-3.2c0.1-0.7,0.2-1.4,0.2-2.1c-1.5-1.1-3.1-0.9-4.7-0.5
		c-0.3,0.1-0.6,0.2-0.5,0.5c0.3,0.6,0.1,1-0.4,1.3c-0.7,0.4-1-0.3-1.5-0.6c-0.2-0.2-0.5-0.3-0.9-0.5c-0.4,1.4,1.7,2.2,0.5,3.4
		c0.6,1.1,2.8,0.6,2.4,2.6c-0.7,0-1.2-1.1-1.9-0.4c-0.2,0.5,0.8,0.6,0.2,1.3c-0.1,0.4-0.6-0.7-0.9,0c0.1,0.5,0.6,0.9,0.3,1.4
		c-2-0.1-3.6-0.8-3.5-2.4c0-1.2-0.9-1.6-1.1-2.4c-0.1-0.6-0.7-0.6-0.9-0.9C444.9,111.8,443.3,110.4,444.5,107.9z M475.3,98.2
		c-1.1-0.6-3.1,0.9-3.4-1.4c-0.5,0-0.9,0-1.4,0.1c-1.6,0.4-2.8,1.4-3.7,2.7c-0.3,0.5-0.3,1.1-1.1,1.2c-0.5,0.1-1,0.6-1,1.1
		c-0.1,1.8-1.8,2.6-2.3,4.2c0.7,1.5,1.7,2.8,3.5,2.8c2.1,0.1,4.1,0.8,6.1-0.7c2-1.5,4.5-1.1,6.7-0.8c1.5,0.2,3.1,1.2,4.7,1.7
		c2.8,0.7,5.6,0.5,8.4,0c1-0.2,1.7-0.7,1.6-1.9c-0.1-1.1-0.4-2.1-1.6-2.3c-1.1-0.2-2-0.8-3-1.4c-1-0.7-2-1.2-3-1.7
		c-0.8-0.4-2.2-0.3-2.4-1.7c1.4,0,1.5-1.7,2.6-2.1c-0.2-0.5-0.9-0.5-0.9-1c0.9-0.4,1.9-0.4,2.9-1.4c-3.9,0.3-7.2,1.4-10.6,2.3
		c1.1,1.8,2.9,1.7,4.7,2c-2.2,0.4-4.2,1.3-6.7,1.8c0.7-1.9-0.9-1.8-1.7-2.3C473.9,98.7,475,99,475.3,98.2z M518.6,108.8
		c-1.2-0.9-0.8-2.1-0.4-3.3c-3,0.1-3.3-2.9-5.4-3.8c0.5-0.9,1.6-0.1,1.7-0.6c0.4-1.7,1.6-1.5,2.9-1.5c0.9,0,1.8-1.3,1.7-2.4
		c-0.1-1.2-0.9-1.1-1.7-0.8c-0.5,0.1-0.9,0.1-1.3-0.2c-0.8-0.4-1.6-0.2-2.4,0.1c-0.8,0.3-1.6,0.6-2.3,1c-2.2,1.3-5.1,1.5-6.3,4.4
		c1.1,0.6,1.9,1.4,1.6,2.8c0,0.2,0.1,0.5,0.3,0.7c1.9,1.8,3.3,4.2,6.1,5.6c-1.5-0.1-2.1,0.6-2.1,1.8c0,0.3-0.1,0.7-0.3,0.9
		c-1.2,0.9-1,2.2-1.1,3.7c1.7,0.3,3,1.1,4.4,1.9c2.1,1.1,4.3,0,6.5-0.1c0.8-0.1,0.8-0.7,0.6-1.4c-0.4-1.2-0.1-2.4-0.1-3.7
		c-1.5-0.1-0.6-2.5-2.4-2.2c-0.1-0.8-0.1-1.4,0.4-2c1.2,0.2,2.5,0.8,3.7-0.2c-0.5-0.7-1.3-1-1.7-1.9c-0.4-0.9-1.3-0.5-2.1-0.2
		C518.8,107.8,518.7,108.3,518.6,108.8z M465.7,109.8c-2.9-0.7-3.4-0.6-4.3,0.9C462.9,110.5,464.3,111.1,465.7,109.8z"/>
	<path class="st1" d="M-2.6,387.9c8.1,0.5,19.3,0.2,27.4,0.8c5.8,0.4,11.5,1.1,17.3,1.3c6.9,0.3,13.8,0.1,20.7,0
		c4.2,0,8.3-1.1,12.4-0.6c-0.1-0.7-0.5-0.8-1-0.8c-3.5-0.5-7.2-0.1-10.7-0.6c-0.3,0-0.5-0.1-0.8-0.1c-0.9-0.1-1.9-0.3-2.2-1.3
		c-0.3-1,0.6-1.5,1.2-2c0.1-0.1,0.3-0.2,0.6-0.4c-1.8-0.8-3.6-0.9-5.4-1.5c-0.1-0.3,0.2-0.6-0.1-0.9c-1.3-0.3-2.7-0.5-4.1-0.7
		c2.5-0.7,5.1-0.4,7.7-0.3c2.7,0.1,5.3,0.1,8,0.4c2.8,0.3,5.4-0.8,8.1-1.8c-6.9-2.3-14.1-2.7-21.2-3.6c0.2-0.8,1.1-0.5,1.4-1
		c0-0.2-0.2-0.4-0.4-0.3c-3.8,0.3-4.3,0.2-6.6-1.1c0-1.4,1-1.4,2-1.5c4.6-0.2,9.1-0.1,13.6,0.9c1.6,0.4,3.2,0.3,4.8,0
		c2-0.4,4-0.1,5.9-0.3c0.5-1.1-0.2-1.4-0.9-1.6c-1.3-0.3-2.7-0.5-4-0.5c-0.8,0-1.6-0.1-2.8-0.1c2.9-0.7,5.4-0.5,7.9-0.9
		c7.6-1.2,15.3-2.2,23-2.5c7.4-0.3,14.8-0.2,22.2-0.1c3.5,0,6.9,0,10.3-0.4c3.9-0.4,7.8-0.4,11.7-0.4c0.9,0,1.7,0.1,2.4-0.8
		c0.7-0.9,2.8-0.4,3.4,0.6c0.8,1.1,2.2,1.4,3.2,0.6c0.1-0.1,0.2-0.2,0.2-0.3c0.7-1.1,1.7-0.9,2.5-0.5c1,0.5-0.1,1.2-0.1,1.7
		c0.3,0.4,0.7,0.6,1,0.5c2.9-0.4,5.8,0.6,8.7-0.2c2-0.5,4-0.4,6-0.2c2.6,0.3,5.3,0.3,8,0c-1.6-0.7-3.2-1.8-4.9-2
		c-1.8-0.3-2.1-1.8-3.4-2.9c1.1-0.4,1.8-0.3,2.6-0.1c0.7,0.2,1.4,0.5,2.1,0.5c4.9-0.4,9.7,0.8,14.6,0.4c2.6-0.2,5.2,0,7.8,0.1
		c1.5,0.1,2.8,0,4.1-0.7c0.9-0.4,1.9-1.1,2.6,0.4c0.2,0.4,0.9,0.6,1.4,0.5c2.9-0.6,5.5,0.5,8.2,0.9c1,0.1,2.1,0.3,3.1,0.5
		c1.4,0.2,2.6,0,3.6-1c1-0.9,2.1-1.3,3.4-0.7c1.9,0.9,3.8,1,5.9,0.9c3.5-0.2,7,0,10.5-0.5c2.8-0.4,5.7-0.8,8.5-1.1
		c0.7-0.1,1.3-0.3,1.9-0.6c1-0.5,1.2-1.3,0.5-2.2c-0.8-1-1.6-2-2.5-3c-0.9-1-0.8-1.5,0.4-2.2c0.4-0.2,0.9-0.3,1.3-0.5
		c1.4-0.7,1.6-1.5,0.7-2.7c-1.3-1.7-1.2-2.2,0.9-2.8c1.7-0.5,3.2-1.4,4.7-2.3c1.6-1,3.3-1.8,5.2-2c1.6-0.2,3.1-0.8,4.6-1.4
		c2-0.8,4.2-0.9,6.1-1.7c0.4-0.2,0.8-0.1,1,0.3c0.2,0.5-0.1,0.9-0.6,1.1c-1.1,0.6-2.2,0.7-3.4,0.8c-2.1,0.2-4.3,0.7-5.7,2.2
		c-1.7,1.8-3.2,3.2-5.9,3.2c-1.2,0-2.9,0.9-2.8,2.5c0.2,1.7,1.9,1.6,3.3,1.8c0.9,0.1,1.5,0.5,1.9,1.2c1,1.5,2.3,2.7,3.4,4
		c2.7,3.2,2.1,6.2-1.7,8c-1.3,0.6-2.6,1.2-3.8,2c-0.9,0.7-2.1,0.8-3.2,0.9c-2.1,0.2-4.3,0.5-6.4,0.9c-6.5,1.4-12.9,1.1-19.3-0.2
		c-1.1-0.2-2.3-0.3-3.5-0.1c0.1,1.3,1.1,1.6,1.9,1.8c2.3,0.7,4.6,1.2,7.1,1c1-0.1,2.1,0,3.3,0.7c-6.2,1.5-12.1-0.7-18,0
		c2.3,2,5.2,0.3,8.1,1.6c-5.1,1.5-9.7,0.8-14.3-0.5c0.6,1.8,2,2.1,3.4,2.2c2.7,0.2,5.5,0.2,8.2-0.2c1.9-0.2,3.7-0.1,5.2,0.7
		c0.5,0.8-0.4,0.9-0.3,1.4c0.1,0.1,0.2,0.2,0.3,0.2c5.6,1.6,11.4,2,17.1,2.6c3.6,0.4,7.1,0.9,10.6,1.3c2.2,0.2,4.4,0.4,6.6,0.6
		c1.4,0.1,2.7,0.4,3.8,1.3c1,0.8,2.3,0.8,3.5,0.5c2.5-0.6,5-1.5,7.6-1.8c5.5-0.6,11-0.6,16.5-0.8c2.7-0.1,5.3-0.2,8,0.1
		c0.4,0,1,0,1.3-0.1c3.8-1.9,7.9-1.8,12-2c5.8-0.3,11.6,0,17.3-1c0.7-0.1,1.4-0.3,2-0.6c-1.1-2.2-2-2.6-4.5-2.3
		c-4.3,0.4-8.5,0.2-12.8-0.2c0-1.3,0.9-1.6,1.7-2c2.8-1.5,5.8-1.7,8.8-2.3c6.7-1.2,13.4-2.3,20.2-2.7c2.5-0.1,4.9-0.2,7.4-0.4
		c0.7-0.1,1.5-0.1,2-0.5c1.7-1.4,3.6-2.2,5.9-2.8c-1.1-0.9-2.2-0.2-3.2-0.8c1.7-1.6,4-1.1,5.8-2.1c1.9-1,4.3-0.4,6.1-1.6
		c-0.2-0.9-1.2-0.7-1.4-1.5c0-0.6,0.7-0.6,0.9-0.5c1.4,0.9,2.6,0.2,3.8-0.4c1-0.5,1.8-0.4,2.6,0.5c1.1,1.2,2.4,1.1,3.4-0.2
		c1.2-1.5,1.9-1.7,3.6-1.1c0.2,0.5-0.6,0.5-0.5,0.9c0,0.1,0.1,0.2,0.3,0.2c3.1-0.3,6.2,0.1,9.4-0.1c0.3,0,0.7-0.1,1,0
		c1.9,1.1,3.7,0.2,5.6-0.1c3.6-0.7,7.2-1.2,10.8-1.8c1.3-0.2,2.5-0.5,3.8-0.7c1.9-0.3,3.8-0.5,5.5,0.7c1.3,0.9,2.6,0.8,3.9,0.2
		c1.8-0.9,3.7-1,5.7-1.1c5.9-0.3,11.8,0.4,17.7,0.9c3.4,0.3,6.7-0.2,10.1-0.6c3.5-0.4,6.9-1,10.4-1.5c1.3-0.2,2.5-0.3,3.4-1.6
		c0.6-0.9,1.6-1,2.6-0.5c0.9,0.5,1.7,1,2.5,1.5c1,0.6,2.1,1,3.3,0.2c0.6-0.4,0.9-0.2,1.5,0.3c0.6,0.5,1.8,0.8,2.9,0.7
		c0.8-0.1,1.3-0.4,1.4-1.3c0.1-0.9,0.7-1,1.4-1.1c1.7-0.2,3.3-0.7,4.9-1.3c1.6-0.6,3.2,0,4.8-0.6c1.2-0.5,2.7-0.2,3.8-1.2
		c0.3-0.3,0.9-0.2,1.3,0.1c1.2,1,2.4,0.7,3.6,0.1c0.1-0.4-0.4-0.5-0.2-0.9c1.2-0.7,2.3,0.4,3.7,0.2c-0.1-1.3,0.5-1.9,1.8-2.1
		c3.9-0.5,7.7-1.4,11.5,0.3c0.6,0.3,1.7-0.1,1.9,0.3c1,2.1,3,1.4,4.6,1.7c1.7,0.3,3.5,0.4,5.2,0.5c5.4,0.4,10.8,0.8,16.2,0.8
		c0.5,0,1.1,0,1.5,0.2c0.5,0.2,0.9,0.5,0.9,1.1c0,0.9-0.7,1.5-1.1,2.2c-0.4,0.7-0.7,1.3-1.7,1.2c-0.7-0.1-1.4,0.2-1.8,0.9
		c0.8,0.9,2,0.1,3,0.7c-0.6,1.6-3.2,0.7-3.3,2.9c1.9,1.2,3.9,1,5.8,0.1c0.5-0.2,1-0.6,1.4-1c3.2-3.2,7.3-4.2,11.6-4.9
		c1.4-0.2,2.7-0.7,3.9-1.5c3.2-2.3,7-2.9,10.8-3.4c2.3-0.3,4.6-0.6,7-0.5c2,0.1,4.1,0.5,5.3-2.3c1.1,1.9,2.5,1.8,4,1.7
		c5.8-0.3,11.7-0.3,17.6,0c2.2,0.1,4,0,5.9-1c2.2-1.1,4.7-0.8,7.1-0.5c3.3,0.4,6.7,1,10,1.6c1.9,0.3,3.4-0.2,5.2-1
		c2.6-1.3,5.5-1.6,8.2-0.1c0.4,0.3,0.8,0.7,1.4,0.6c1.8-0.3,3.5,0.3,5.1,0.8c3.2,0.9,6.3,0.3,9.5-0.2c1.2-0.2,2.5-0.3,3.7-0.2
		c1.9,0.1,3.9,0.4,5.7-0.4c0.5-0.2,1.2-0.3,1.7,0.1c1.3,1.2,2.9,0.9,4.4,1.1c0.6,0.1,1.2,0,1.6-0.5c1.3-1.3,2.9-1.3,4.5-1.2
		c2.1,0.1,4.3,0.1,6.4-0.3c0.3-0.8-0.7-2.2,0.8-2.2c1.4,0,1,1.3,1.1,2.3c1.4,0.5,2.9,0.6,4.4,0.6c5.8,0.1,11.5,1.4,17.3,1.3
		c0.8,0,1.7,0,2.3,1.1c0.3,0.7,1.8,0.5,2.7,0.7c3.2,0.7,6.4,1.3,9.6,2c1.5,0.3,3.1,0.3,4.7,0.4c0.7,0,0.8-0.5,1.3-0.9
		c2,1.4,4.2,1.7,6.6,1.6c2.3-0.1,4.5,0.8,6.6,1.4c2.8,0.9,5.7,1.2,8.6,1.3c4.8,0.2,9.4,1,14,2.4c0.5,0.1,1,0.2,1.4,0.9
		c-0.6,0.3-1.5,0.3-1.4,1.5c0.1,0.6-3.3,2.4-4,2.2c-2.6-0.7-4.9,0.6-7.2,1.1c-0.4,0.7,0.3,0.8,0.1,1.4c-1.9-0.3-3.6,0.5-5.6,1.1
		c1.1,1.3-0.1,2.5,0.2,4c2.4,1.5,5.2,2.5,8,3.8c-3.7-0.1-7.3,0.4-11,0.6c-1.2,0.1-2.3-0.1-3,1.4c-0.5,1.2-2.1,1-3.4,1.8
		c0.7,0.4,1.4,0.3,1.9,0.3c0.9,0.1,1.8,0.1,2.2,1c0.5,1,1.2,1.3,2.3,1.4c4.1,0.4,8.1,1.8,12.1,2.9c5.3,1.4,10.6,1.7,16,2.1
		c4.3,0.4,10.5,0.8,14.8,0.8c0,4.3,0,9.6,0,13.9c-266.7,0-538.3,0-805,0C-2.6,397.2-2.6,392.1-2.6,387.9z M77.1,389.2
		c1.5,0.1,3,0.8,4.5,0.1C80.1,389.1,78.6,388.5,77.1,389.2z"/>
	<path class="st1" d="M-1.6,47.3c2.7,0.7,7.4,1.3,10.1,2c1.7,0.4,3.3,0.7,3.7,2.8c0.1,0.5,0.7,0.7,1.2,0.9c0.6-0.4-0.5-1.1,0.2-1.5
		c0.6-0.4,1.1-0.1,1.7-0.1c2.8,0,5.4,1,8.2,2.5c-1.2,0-2,0.4-2.8,0.8c-0.8,0.4-1.9,0.2-3,0.2c0.6,1.5-0.6,1.3-1.3,1.4
		c-0.4,0.4,0.2,0.8-0.4,1.2c-1.9,0.4-3.6-1-5.5-1c-0.1,0-0.3-0.1-0.3-0.2c-1-1.9-4.5-1.5-6.2-1.2c-0.8,0.1-1.7,0.4-2.4-0.7
		c-0.5-0.9-1.3-0.4-1.9,0.3c-0.4,0.6-0.3,1.6-1.4,1.6C-1.6,53.3-1.6,50.3-1.6,47.3z"/>
	<path class="st1" d="M116.5,43.6c0.8,0,1.5,0.3,1.9,0.8c1,1.2,2.3,1.6,3.7,1.9c0.6-1.4,1-1.6,2.1-0.6c0.7,0.6,1.5,0.5,2.1,0.1
		c1.7-1,3.3-0.7,5.1-0.3c3.4,0.8,6.8,1.6,10.4,1.7c0.7,0,1.4,0.2,2.2-0.5c-1.4-0.6-2.9-0.8-4.1-2c3.8-0.8,7.5-0.2,11.7-0.6
		c-1.1-0.7-1.9-0.8-2.7-0.8c-2.7,0-5.3,0-8,0c-1,0-2.1,0.1-3.1-0.6c1-0.5,2-0.6,3.1-0.7c-1.4-0.4-2.6-1.3-4.3-1.1
		c1.4-1.9,7-3.6,10.4-3.3c0.5,0.5-0.4,0.7-0.2,1.2c0.6,0.5,1.2,0,1.8-0.2c1.6-0.5,3-0.6,4.4,0.7c0.8,0.7,2,0.3,2.7-0.2
		c1.4-1,2.5-0.9,3.7,0.5c0.6,0.7,1.1,1.9,2.4,0.9c-0.4-1-1.6-1.6-1.2-3c2.1,0,4.4-0.1,6,1.4c0.8,0.8,2.5,1.7,2,3.5
		c2.2,2.1,5.8,0.8,8.3,3.2c-1.8,0.5-3.5-0.9-5,0.5c0.8,0.8,2-0.5,2.7,0.7c-1.1,1-2.5,0.9-3.7,0.8c-2.1-0.1-4.2-0.3-6.1-1.2
		c-0.4-0.2-0.7-0.2-1.1-0.1c-4.1,1.6-8.4,1.9-12.8,1.8c-1,0-2.1,0.3-2.6-1.1c-0.1-0.3-0.5-0.3-0.9-0.4c-1.1-0.1-2.2-0.2-3.5,0
		c0.9,1.1,2.5,0.7,3.3,1.8c-0.7,0.7-1.9,0-2.8,0.8c1,0.5,2,0.6,2.9,0.6c2.2,0.1,4.4,0.2,6.6-0.2c2.1-0.5,4,0.3,5.9,0.8
		c0.5,0.1,0.5,0.5,0.6,0.8c0.4,1,1.1,1.2,1.9,0.3c-0.3-0.6-1.1-1-0.7-1.8c0.4-0.7,1.2-0.3,1.8-0.5c3.2-1.1,6.2,0,9.2,0.5
		c2.8,0.4,5.7,0.1,8.5-0.1c0.2,0,0.4,0,0.6-0.1c0.5-0.2,0.3-1.2,1.1-1.1c0.6,0,1.1,0,1.9-0.1c-1.6-0.9-3.2-0.6-4.7-1.3
		c1-0.6,2.1-0.6,2.7-1.6c0.3-0.5,1.1-0.3,1.7-0.1c1.4,0.5,2.9,0.9,4,2.2c-0.9,1-2.2,0.5-3.3,0.8c0.5,0.7,1.3,0.3,1.8,1
		c0,0.3,0.1,0.8,0.1,1.3c0.5,0.6,1.1,0.4,1.7,0.6c0.5-0.6-0.4-1.1,0.2-1.8c1.3-0.3,2.8-0.9,4.2-1.5c-0.6-1.1-1.6,0.2-2.1-0.6
		c0.1-0.8,1.3-0.2,1.5-1.1c-1.8-0.9-4.1-0.3-5.9-1.5c-0.4-0.5,0.4-0.5,0.4-0.9c0-0.7-0.9-0.3-0.9-0.9c0-0.1,0.1-0.2,0.1-0.3
		c0.8-0.7,1.8-1,2.6-1.7c1.2-1,4.5,0.1,5.4,1.5c0.7,1,2,1.1,2.8,1.9c-0.4,0.6-1.4,0.1-1.6,1.2c0.7,0.3,1.4,0.3,2,0.2
		c1.2-0.1,2,0.1,2.3,1.5c0.1,0.4,0.2,1.1,0.8,1.3c1.3,0,1.3-2.5,3.1-1.8c0.9,0.4,1.9,0.6,2.2,1.7c-0.3,0.7-1,0.3-1.4,0.7
		c0,0.1,0,0.4,0.1,0.5c1,0.6,1.7,1.7,3,1.4c1.1-0.2,2-1.1,2.5-1.9c0.7-1.1,1.4-1.6,2.6-1.5c-0.3-0.9-1.2-0.6-1.6-1.1
		c-0.4-0.7,0.4-1,0.5-1.6c-1-0.4-2.3,0.2-3.1-1c-0.2-0.4-0.8,0.1-1.3,0.1c-1.6,0.2-3.2,0.3-4.6-1.1c1.2-0.8,2.4,0,3.7-0.3
		c-1.8-1.4-3.7-0.5-5.4-1.1c-0.3-0.8,1.2-1.3,0.4-2.3c-0.2-0.2,0.8-1,1.4-1.4c2.6-1.5,5.4-1.7,8.6-1.4c-1.1,1-2.4,1.1-3.3,2
		c0.9,1.3,1.3,3.1,3.4,3c-0.1,0.3-0.5,0.8,0,1c0.6,0.2,1.1,0.1,1.3-0.7c-0.3-0.4-0.7-0.5-1.1-0.4c-0.3-0.3-0.7-0.5-1.1-0.9
		c0.3-0.3,0.6-0.5,0.9-0.7c-0.1-0.4-0.8-0.4-0.5-1.2c0.6-0.4,1.4-1.1,2.2-1.3c3-0.6,6.2-1.7,8.9,1.1c0.1,0.7-1,0.9-1,1.8
		c0.6,0.5,1.3,0.4,1.9,0c1.2-0.8,2-0.7,2.8,0.9c0.7-2.4,2.4-2.3,4.1-2.1c1.9,0.2,3.9-0.1,5.6,1.2c0.2,0.2,0.4,0.2,0.3,0.6
		c-0.4,0.3-1.1,0-1.3,0.9c0.6-0.1,1.1-0.2,1.6-0.6c0.9-0.1,1.4,0.6,2.1,1.1c1.1-0.8,2.3-1,3.6-0.7c0.8,0.2,1,1.2,2.1,1.4
		c0.7,0.1,1.6,0.6,2.4,0.4c0.8-0.2,1.5,0,2.2,0.2c0.4,0.5-0.5,0.6-0.2,1.1c1.2-0.2,2.5-0.8,3.5,0.7c0.1,0.2-0.4,0.2-0.4,0.7
		c0.1,0.4,1.2-0.2,1.2,0.6c-0.8,0.8-2.5-0.9-2.9,1.2c2.3,0.8,4.3,2.1,6.8,1.5c0.3-0.1,0.9,0.1,1.1,0.3c1,1,2.3,1.5,3.6,2
		c0.4,0.2,0.8,0.2,1.1,0.1c1.1-0.4,1.8,0.1,2.7,1c-2-0.4-2.4,2.8-4.5,1.7c-0.5,0.6-0.1,1.1-0.3,1.6c-0.2,0-0.4,0-0.6-0.1
		c-0.9-0.3-2.5-1.6-3.4-1.8c-1.7-0.4-3.1-2-5.1-1.4c-0.3,0.6,0.6,0.7,0.4,1.2c-0.4,0.5-1-0.2-1.4,0.1c0.1,0.2,0.1,0.4,0.1,0.4
		c1,0.3,1.7,0.8,2.4,1.5c0.7,0.7,1.9,0.5,2.8,1.1c1,0.7,1.9,1.5,2.8,2.5c-1.2,0.3-1.2,1.2-1.4,2c-2.7-1-5.3-2.1-8.2-2.4
		c1.6,1.8,4.7,1.5,6,4.3c-2.7-1-5.5-0.9-8-2c-1.1-0.5-2.4-0.6-3.6-0.9c-0.6-0.1-1.2-0.1-1-1.1c0.1-0.8-0.7-0.7-1.1-0.7
		c-1-0.2-1.7-0.6-2.6-1.2c-0.8-0.6-1.9-1.4-3-0.2c0,0-0.1,0.1-0.2,0.1c-2.6-0.3-5.2,1.2-7.7-0.3c0.4-1.1,1.6-1.9,2.7-2
		c1.2,0,2.3,0.8,3.6,0.4c1.1-0.4,2.3-0.5,3.5-0.5c0.1-1-1.1-0.7-1.3-1.6c1.6-0.5,3.2-1.2,4.3-2.8c-2.7-2.7-5.8-3.6-9.5-2.8
		c0.2-1.2,1.2-0.5,1.6-1.2c-2.4-1-4.7-2-7.3-3.1c0.1,0.8,0.9,0.8,0.8,1.7c-3.5-0.4-7,0.2-10.6,0c1.5,0.5,2.8,1.4,4.5,1.4
		c0.4,2.9-1.9,0.5-2.4,1.5c0.4,1.4,2,1.7,2.9,2.6c-1.2,1.9-3.6,2.6-5.7,1.9c-0.9,1.1-2,0.9-2.9,0.4c-1-0.5-1.8-0.5-2.8-0.2
		c-0.1,0.7,0.8,0.4,0.7,1c-0.8,0.8-2,1-2.9,1.8c-0.3,0.4-1,0.4-1.4,0c-1.3-1.3-3-1.4-4.2-1.3c1.5,1,3.6,1.8,5.9,1.4
		c-0.4,2.3-2.2,3-5.6,2.6c0,1.7-1.3,1-2.2,1.1c-0.5,0.6,0.6,0.5,0.4,0.8c-0.2,0.5-0.5,0.5-0.7,0.5c-1.8,0-3.2,1.2-4.5,2.1
		c-1.7,1.2-3.6,2.5-4,4.9c-0.3,1.6,0.2,2.4,1.7,2.6c2.1,0.2,2.8,0.8,3.4,2.8c0.1,0.2,0.1,0.5,0.2,1c2.5-0.9,4.9-0.4,7.3,0.3
		c0.7,0.2,1.4,0.4,2,0.7c3.2,2.1,6.8,2.7,10.5,2.8c0.9,0,1.8,0.3,2.9,0.4c-0.9,1.5,0.7,2.9-0.1,4c0.6,2.2,2.8,2.5,4,3.8
		c0.5,0.5,1.3,1.2,2.1,0.1c0.3-0.5,0.8-0.1,1.2,0.1c0.8-2.2,0.6-3.6-1.4-7.1c1.3-0.6,2.7-0.8,3.9-1.6c0.5-0.3,1-0.6,1.5-0.9
		c2-1.6,1.8-3.5-0.3-4.9c-0.8-0.5-1.8-0.7-2.6-1.6c0.9-0.7,1.3-1.9,2.6-2.5c-0.5-0.8-0.4-2-1.7-2.2c0.2-0.6,0.9-0.8,1-1.4
		c0-0.5-0.9-0.5-0.8-1.4c0,0.1,0-0.1,0.1-0.3c0.6-0.9,1.5-0.7,2.3-0.6c2.4,0.4,4.7,0.8,7.1,0.2c1.3-0.3,2.7,0.6,3.7,1.5
		c1.5,1.4,3.3,1.6,5.2,1.7c0.2,0,0.4,0.1,0.8,0.1c-1.6,1.4,0.7,3.1-0.6,4.7c1.3,0.1,2.8-0.5,3.7,1.1c0,0,0.1,0,0.2,0
		c1.2,0.1,2.3-1,3.2-1c1.6,0,1.7-0.9,2-1.8c0.3-1.1,1.6-0.6,2-1.6c3,2.1,4.8,4.9,7.3,7.2c-0.2,0.9-1,0.5-1.6,0.6
		c0.7,1.9,3.9,0.9,3.8,3.6c2.2-0.6,4,1.1,6.1,0.9c0.3,0.5-0.1,0.6-0.5,0.9c1.1,0.2,1.5,1.5,2,1.5c1-0.1,1.7,0.2,2.6,0.8
		c0.1,0.9-0.9,1.8,0.3,2.5c-1.7,1.2-3.3,1.9-5.1,1.7c-0.8-0.1-1.4,0.2-1.9,0.7c-1.3,1.3-3,1.7-4.8,1.7c-3.4,0-6.8,0-10.2-0.1
		c-1.4,0-2.7,0.2-3.5,1.6c-0.3,0.5-0.7,0.7-1.3,0.7c-1.9,0.2-3.3,1.3-4.5,2.7c3.7-1,7.1-3.1,11.2-2.4c0.5,0.1,1,0.2,1.1,0.9
		c-0.9,1-1.6,1.3-3.3,1.7c0.5,1.2,1.4-0.2,2.1,0.6c-0.5,0.7-0.3,1.6,0.2,2.4c0.6,1.1,2,1,2.9,1.6c0.7,0.4,1.7,0.6,2.6,0.2
		c0.7-0.3,1.1,0.5,1.8,0c0.1-1.3,0.8-2.3,2.1-2.9c0.8,0.5,0,1,0.2,1.3c0.3,0.7,1.1,0.3,1.3,1.2c-0.8,0.9-1.9,1-3,0.9
		c-0.4,0.2,0.6,0.7-0.2,1c-1.3,0.3-2.6,0.7-3.9,1.1c-1.5,0.4-3,0.6-4.1,1.9c-0.4,0.4-1.1,0.6-1.7,0.8c-1.8-1.5-1.7-2,0.2-3.1
		c0.7-0.4,0.7-0.4,1.2-1.4c-1.5,1.1-3.5,0.2-4.9,1.7c-0.4,0.4-1.2,0.5-1.8,0.5c-1.7,0-3,1.2-4.6,1.8c-1.3,0.5-1.7,2.6-1.1,3.5
		c0.4,0.7,1.1,0.2,1.9,0.6c-2.1,0.4-3.7,0.7-5.3,1.1c-0.8,0.1-1.6,0.1-2.3,0.4c-0.9,0.3-2,0.4-1.9,2.1c0.1,1.2-0.9,2.4-2.5,2.7
		c0.7,1.7-0.7,2.4-1.5,3.4c-0.1,0-0.1-0.1-0.2-0.1c0.1-0.8,0.4-1.6-0.8-1.8c-0.8,2.1,1,3.5,1.4,5.5c-1.5,0.5-1.6,2.9-3.7,2.7
		c-1.1,1.9-4,1.5-5,3.7c-0.2,0.4-0.8,0.6-1.3,0.8c-2.8,1.2-3.9,4.2-2.4,6.9c1.1,1.8,1.4,3.7,2.2,5.6c0.6,1.4-0.2,2.6-0.6,3.9
		c-1.9,1-2.2-1-2.9-1.7c-0.8-0.7-1.4-1.8-1.9-2.8c-0.3-0.5-0.7-1.4-0.5-1.8c1.1-2.4-1.3-2.9-2.2-4.1c-0.5-0.6-1.2-0.2-1.8,0.1
		c-0.7,0.4-1.4,0.7-2.1-0.3c-0.6-0.8-1.7-1-2.8-0.9c-1.1,0.1-2.3,0.2-3.4,0.2c-2.1,0-2.1-0.1-2.9,1.9c0,0.1-0.1,0.1-0.1,0.2
		c-1.5,0.3-3,0.9-4.2-0.6c-2.6,0.5-5.5-1.3-7.7,1.1c-0.4,0.4-1,0.9-1.5,0.9c-1.5-0.2-2.4,1-3.1,1.7c-0.7,0.6-1.3,1.9-0.7,3.2
		c0.6,1.1,0.2,2.1-0.1,3.3c-0.9,3.3-1.3,6.8,1.1,9.9c0.4,0.5,0.9,0.9,1,1.4c0.7,2.4,2.9,2.6,4.6,3.6c0.9,0.5,1.9-0.1,2.8-0.4
		c1.8-0.5,2-0.5,3.3,0c0.5-0.3,0.3-1,0.9-1.3c1.1-0.5,1.2-1.7,1.4-2.8c0.1-0.8,0.2-1.7,1.3-1.9c1.9-0.2,3.7-1.2,5.7-0.7
		c0.5,0.1,1.1,0.1,1.3,0.6c0.3,0.6,0,1-0.5,1.3c-1,0.7-1.1,1.7-1.1,2.9c0,0.7,0.1,1.7-0.9,2.3c-0.4,0.3-0.4,1.5-0.4,2.2
		c0,1.2-0.2,2.2-1.5,3c2.1,0.4,3.9,0.3,5.6,0.2c0.7,0,1.6,0.1,2.2-0.1c1.9-0.6,2.8,1,4.1,1.7c0.7,0.4,0.9,1.4,0.4,2.3
		c-1.1,1.7-0.7,3.7-1.2,5.5c-0.2,0.9,0.3,1.6,0.8,2.3c0.9,1.2,2,2.2,3,3.3c0.6,0.7,1.8,1,2.8,0.5c0.6-0.3,1.2-0.5,1.8-0.8
		c2.2-1.1,4.1-0.7,5.7,1.1c0.4,0.5,0.9,0.9,1.4,1.5c0.2-0.6,0.1-1.2,0.7-1.6c1.2-0.9,2.4-1.8,2.5-3.6c0-0.4,0.4-1,0.9-0.9
		c1.2,0,2.1-0.9,3.3-1c1.3,0,2.4-0.8,3.3-1.7c0.9-1,1.6-0.7,2.4,0.1c-0.4,0.9-1.4,0.3-1.7,1c-0.2,0.6,0.1,1.1,0.6,1.5
		c1.1-0.4,2.2-0.7,3.1-1c0.5-0.7-0.6-0.9-0.2-1.5c0,0,0.1-0.1,0.1-0.1c1.4,0.8,3,1.4,4.1,2.5c0.6,0.6,1,1,1.9,0.9
		c1.5-0.2,2.9-0.3,4.3,0.7c0.6,0.5,1.7,0.6,2.4,0c1.5-1.5,3.3-1,5.1-1c-0.1,0.7-0.9,0.2-1,0.8c1.7,2.1,2-0.6,2.9-1.1
		c0.8,1,0.4,1.6,0,2.2c0.2,0.6,0.9,0.6,1.2,1c-0.1,0.6-0.7,0.9-0.6,1.7c2.8,0,5.1,0.9,6.1,3.9c0.7,0.1,1.4,0.4,2,1
		c1.2,1.3,2.5,1.4,4.1,1.1c2.4-0.5,4.5,0.5,6.5,1.6c1.2,0.6,1.8,2,3.2,2.4c0.5,0.2,0.4,1,0.6,1.6c0.6,1.4,0.4,3.3,2.3,4
		c0.4,0.2,0.5,0.9,0.1,1.2c-0.9,0.8-1.3,2.1-2.5,2.7c-1.1,0.6-1.7,1.7-1.9,3c1,0.4,1.6-1.3,2.5-0.2c0.4-0.5,0.4-0.9,0.4-1.3
		c0-1.1,0.6-1.6,1.6-1.3c1,0.3,2.1-0.4,3.1,0.5c0,1.4-0.8,2.4-1.9,3.4c1.1-0.3,2-0.8,2.4-1.7c0.5-1,1.6-1.3,2.3-0.9
		c1.3,0.6,2.8,0.7,3.9,1.7c0.1,0.1,0.1,0.2,0.2,0.3c2,1,2,1,1.7,3c0.8-0.2,1.4-0.7,2.1-0.9c0.8-0.2,1.5-0.3,2.2,0.1
		c1.4,0.8,2.9,1,4.3,0.7c1.2-0.3,2.2,0.1,3.1,0.7c0.8,0.5,1.6,1.1,2.3,1.8c1.5,1.3,2.9,2.6,5.1,2.5c1.1,0,1.5,0.6,1.8,1.6
		c0.4,1.8,1,3.4,0.6,5.3c-0.6,2.6-2.4,4.1-4.3,5.5c-0.5,0.4-0.9,0.8-1.1,1.5c-0.2,1.1-1,1.9-1.6,2.9c-0.4,0.7-0.8,0.4-1.3,0
		c-0.8,1.8-1.1,3.7-0.6,5.6c0.4,1.8,0,3.8-0.6,5.3c-0.5,1.3-1,2.4-1.1,3.9c0,1-1.1,2-1.8,2.9c-0.7,0.9-1.3,1.8-1.1,3
		c-1.2,0.3-2,0.8-2.2,2c-0.9,0-1.7,0.1-2.5,0c-1.7-0.2-3.2,0.4-4.7,1.2c-1.4,0.8-3,1.2-4.4,2.3c-0.8,0.6-1.7,1.2-2.5,1.9
		c-0.8,0.7-0.6,1.7-0.6,2.6c0,0.9,0.1,1.8,0,2.7c-0.1,1-0.4,1.9-1.3,2.5c-1,0.7-1.7,1.6-2.1,2.7c-0.6,1.5-1.5,2.7-2.9,3.6
		c0-1.2,1.3-1.7,1.6-2.8c-0.4-0.5-1-0.5-1.1-0.1c-0.5,1.7-2,2.7-2.5,4.5c-0.6,2.2-2.6,3.6-4.3,5.1c-0.4,0.3-0.9,0.4-1.3,0.3
		c-1.6-0.5-3.3,0.5-4.9-0.7c-0.7-0.5-2,0.2-2.9-0.7c0,1.8,1.8,1.4,2.5,2.5c-0.2,0.9-0.4,1.8,0.8,2.5c0.9,0.4,0.2,1.2-0.2,1.9
		c-1.5,2.7-4.1,3.3-6.9,3.6c-1.6,0.1-3.2,0.1-5.1,0c1,1.5-0.5,2.8,0.1,4.1c-2,1.6-4,0.5-5.9,0.1c-0.6,0.7,0,1.1,0,1.6
		c0.2,1.6,0.2,1.6,1.9,1.1c0.3-0.1,0.7-0.1,0.9,0.2c0.2,0.3,0.3,0.7,0.1,1.1c-0.2,0.3-0.5,0.4-0.8,0.3c-0.5-0.2-0.9-0.6-1.5-0.3
		c-0.3,0.4,0.4,0.4,0.4,0.7c-0.4,0.7-1.9,0.6-1.6,1.7c0.2,1-0.9,1.4-0.6,2.4c-1.2,0.3-2.6,0.2-3.5,1.3c-1,1.1-0.9,1.8,0.2,2.7
		c0.5,0.4,0.9,0.7,1.6,0.8c0.5,0,1,0.1,1.4,0.6c-0.1,1.3-0.9,1.9-2,2.4c-1.2,0.5-2.4,1-2.4,2.7c0,0.7-0.8,1-1.4,1.2
		c-2.2,0.8-2.5,1.9-1.1,3.7c0.3,0.4,0.5,0.7,0.8,1.2c-0.3,0.1-0.5,0.2-0.7,0.3c1.9,2.6,4.1,4.8,7.6,5c-1.1,0.5-2.2,0.9-3.3,0.6
		c-2.8-0.7-5.7,0-8.4-0.5c0.1-0.8,0.1-0.8,1.5-1.1c-0.3-0.8-0.3-1.7-1.1-2.2c0.1-0.7,0.8-0.8,1.2-1.2c-0.2-0.1-0.3-0.2-0.4-0.2
		c-1.1-0.1-1.8,0.4-1.9,1.5c-0.1,1.4-0.9,1.3-1.8,1.1c-0.3-1,0.7-1.2,0.8-2c-0.9-0.1-1.6,0.4-2.4,0.4c-1.7,0-2.1-0.5-2.2-2.2
		c-0.1-0.9-0.8-1.8-1.6-2.5c0.2-0.2,0.6-0.4,0.8-0.6c0-0.2,0-0.3-0.1-0.4c-1.4-1.1-0.9-2.8-1-4.2c-0.1-0.7,0.4-1.4-0.3-2.2
		c-0.6-0.6,0.6-0.8,0.7-1.4c-0.7-0.8-2-0.2-2.6-1.3c0.7-0.4,1.2-1.2,2-1.4c0.9,0.2,0.3,1.3,1.3,1.3c0.9-1.2,0.6-3.3,2.6-3.9
		c-1-1.2-1.3-2.1-0.5-3.5c0.5-0.8,0.9-2.1,0.2-3.2c-0.7-0.2-1.1,0.5-1.9,0.3c0.8,0.9-0.4,1.4-0.1,2.1c0.1,0.4,0.2,0.8,0.1,1.1
		c-0.1,0.4-0.3,0.7-0.8,0.6c-0.4-0.1-0.6-0.3-0.6-0.7c0.3-1.1-0.2-2.6,1.5-3.2c-1-1.6-1-3.1,0.4-4.4c0.2-0.2,0.4-0.7,0.3-0.9
		c-0.6-1.4,0-3-1.1-4.3c0.6-0.5,1.4-0.7,1.6-1.6c0.5-2.2,2-3.9,2.6-6.1c0.4-1.5,1-3,0.7-4.7c-0.3-1.3-0.7-2.8,0.5-4.1
		c0.3-0.3,0.3-0.8,0.1-1.1c-0.6-0.9-0.3-1.8,0.1-2.6c1.1-2.1,0.9-4.5,1.7-6.7c0.3-0.8-0.1-1.5-0.1-2.3c-0.1-1.7,0.5-3.3,0.8-5
		c0.4-2.4-0.1-4.7-0.1-7c0-1-0.8-1.6-1.5-2.3c-2.5-2.4-5.8-3.3-8.5-5.2c-1.6-1.2-3.3-2.3-3.5-4.6c-0.1-0.8-0.8-1.6-1.3-2.4
		c-1.7-2.6-2.8-5.6-4.3-8.4c-0.8-1.4-1.9-2.7-2.7-4c-0.6-1-1.8-1-2.7-1.8c0.3-0.4,1-0.7,0.5-1.5c-1.2-2-1-2.5,1-3.8
		c1.4-0.9,1.4-0.9,1.7-2.4c-0.4-0.5-0.6,0.1-0.9,0.2c-0.5,0.2-0.8,0-1-0.3c-0.3-0.3-0.3-3.4,0-3.8c0.8-1.1,1.4-2.4,1.5-3.6
		c2.1-0.7,2.8-2.1,3.3-3.7c2.2-0.5,2.7-1.6,2.7-3.9c0-1.1-0.2-2.2-0.1-3.4c0.1-1,0.1-2.1-0.9-3c-0.6-0.5-1-1.4-1.1-2.4
		c0-0.9-0.7-1.4-1.5-1.8c-0.7-0.3-1.3-0.1-1.8,0.7c-0.2,0.4-0.8,0.6-1.2,0.9c-0.1,0.7,0.8,0.9,0.7,1.5c-1.5,1.6-2.5-0.3-3.5-0.8
		c-0.9-0.4-1.6-0.8-2.6-0.8c-0.8,0-1.8-0.2-1.9-1.2c-0.3-1.7-1.8-1.8-2.8-2c-1.8-0.5-1.9-0.3-2-2.1c0-0.7-0.4-1.2-0.8-1.7
		c-0.7-0.7-1.4-1.6-2.2-2.2c-0.7-0.6-1.1-1.2-1.1-2.1c-1.7,0.9-3.1,0-4.6-0.4c-1.1-0.3-2.1-0.8-3.4-0.9c-1.2-0.1-2-1.1-2.9-1.8
		c-1.1-0.9-2.2-1.9-3.3-2.7c-1-0.7-2.2-1.1-3.1-0.4c-2,1.5-4,0.9-5.7,0.1c-2-0.9-4-1.4-6-2.3c-2-0.9-3.9-1.9-6-2.7
		c-1.6-0.6-3-2-4.4-3.1c-0.6-0.5-1-1.2-0.4-2.2c0.8-1.3,0.1-2.8-0.7-3.7c-1.7-2.2-3.8-4.2-5.8-6.2c-0.6-0.5-1.2-1.2-2-1.1
		c-0.6-0.8,0.3-1.3-0.1-1.9c-1.1-0.8-2.5-1.3-3.1-2.8c-0.1-0.2-0.3-0.3-0.4-0.4c-2.6-1.2-3.6-3.7-4.8-5.9c-0.7-1.3-1.2-2.2-2.8-2.2
		c-0.4,0-0.7-0.3-1.1-0.4c-0.5,1.3,0,3.6,0.9,4.3c1.5,1.2,2.5,2.8,3.6,4.3c0.7,0.9,1,2.2,2.3,2.6c0.5,0.1,0.6,0.7,0.6,1.1
		c0.3,1.3,0.9,2.6,1.6,3.7c0.4,0.8,1.7,1.4,2.5,2.1c0.1,0.1,0.1,0.2,0.2,0.3c-0.1,0.6-0.4,1-1.3,1.2c-0.4-1.2-1.4-1.9-2.4-2.6
		c-1.2-0.9-2.3-1.6-2.4-3.4c0-1.5-1.5-2.1-2.7-2.5c-1.3-0.5-2.4-1.2-3.5-2.3c0.4-0.1,0.9-0.1,1.2-0.3c0.7-0.3,0.9-0.9,0.4-1.6
		c-0.4-0.5-0.7-1-1.2-1.2c-2.4-1.1-3-3.6-4.2-5.6c-0.7-1.2-1.5-2.4-2-3.7c-0.3-0.8-1.3-0.9-2.1-1.3c-1.4-0.7-2.9-1.5-4.7-1.4
		c-0.3-1.3-1-2.3-2-3.1c-1.1-0.8-1.3-2.3-2.1-3.3c-0.4-0.5-0.8-1.4-1.4-1.8c-1.6-1.2-2.3-3.2-2.6-4.8c-0.3-1.9-0.2-3.9-0.8-5.8
		c1.1-1.2,0.4-2.8,0.9-4.1c0.8-2.1,0-4.1-0.5-6.1c-0.1-0.6-0.8-1-0.5-1.9c0.2-0.7-1.4-0.5-1.5-1.5c-1.1,0.5-1.6-0.6-2.2-1.1
		c-1.4-1-3.4-0.9-4.5-2.7c2.2-0.5,4.1,1.1,6.2,0.7c0.8,1.1,1.6,2.1,3,2.6c1.4,0.4,1.5,1,0.8,2.3c0.6,0.5,1.5-0.1,2.1,0.5
		c0.2,0.3,0.1,0.5,0.1,0.8c-0.1,0.2-0.2,0.5,0.2,0.6c1-1,1.3-1.9,0.4-2.8c-1.1-1.1-2.2-2.4-4-2.5c-0.5,0-0.9-0.3-1-0.8
		c-0.3-1.1-1-0.8-1.7-0.7c-0.4,0-0.9,0-1.1-0.4c-0.5-0.9-1.2-0.9-2-0.7c-1.1,0.3-1.7,0-1.4-1.2c0.2-0.7-0.5-0.3-0.7-0.9
		c0-0.3,0.9-0.3,0.8-0.8c-1-1-2.5-1.5-3-3.1c-1.2,0.6-2,0-2.7-0.9c-0.7-0.8-0.1-1.4,0.3-2c-0.5-0.4-0.9,0.1-1.3,0.1
		c-0.9-2.4-0.9-2.4-3.3-2.2c-1.8-3.1-4.9-4.8-7.3-7.3c-0.7,0.5,0.3,1.1,0.1,1.6c-1,0.6-1.3-0.7-2.1-0.8c-0.5,0.8-1.3,1.3-2.2,0.8
		c-1.7-1-3.6-1.6-5.5-2.2c0.1-0.4,0.6-0.2,0.6-0.6c-0.1-0.1-0.2-0.2-0.3-0.2c-1.5,0-3,0-4.5-0.4c-1.2-0.3-2.9-0.2-4.4-0.1
		c-0.6,0.1-1.2,0-1.7-0.1c-2.3-0.8-4.7-1.4-7.1-2c-0.9-0.2-1.6-0.2-2,0.2c-0.7,1.1,0.8,1.1,0.1,2.1c-2.5-0.4-4.7,1.3-7.3,1.9
		c1.1-4.3,1.2-3.4,4.1-4.2c-0.7-0.7-1.5-0.7-2.1-0.3c-1.5,1.1-3.6,1-4.7,2.9c-0.5,0.8-2,0.4-2.7,1.5c0.4,0.4,1.3,0.1,1.5,1
		c-1.3,0.6-2.4,1.5-3.9,1.8c-1,0.2-2.4,0.3-2.8,1.7c0,0.1-0.3,0.3-0.4,0.3c-2,0.4-3.7,1.5-5.5,2.2c-2.1,0.9-4.5,1-6.7,2
		c-0.4,0.2-0.7-0.1-1.3-0.2c1.5-1.1,2.8-2.1,4.6-1.3c0.7-1.3,2-1.8,3.3-2.2c0.6-0.2,1.1-0.6,1.6-0.8c1.7-0.6,2-2.2,2.9-3.5
		c-1.2-0.2-2.3,0.2-3.1-0.5c-0.7,0.1-0.3,0.9-1,1.1c-1.4-1.2-3-1.4-4.8-0.7c-1.4,0.5-1.6,0.2-1.8-1.5c-0.1-1-0.6-1.7-1.6-1.3
		c-2,0.7-3.6,0.4-5.2-1c0-0.5,0.6-0.7,0.8-1.1c-0.9-0.9-2.4,0-3.1-1.5c0.8-0.8,1.5-1.6,2.4-2.4c1.1-0.9,2-1.5,3.4-0.9
		c0.3,0.1,0.7,0.1,1,0c1.4-0.9,3.1-0.8,4.6-1.2c0.4-0.7-0.1-1.1-0.4-1.5c-0.4-0.6,0.8-0.4,0.4-1.1c-0.9-0.5-1.9,0-2.8,0.4
		c-0.9,0.4-1.8,0.5-2.8,0.3c-1.5-0.3-3.1,0-4.7-0.1c-1.8,0-1.9-0.1-2.2-1.9c-1-0.2-2-0.4-3-0.6c0.1-0.4,0.4-0.5,0.7-0.5
		c2.3-0.2,4.4-1,6.6-1.5c0.9-0.2,1.5-0.2,2.3,0.5c1,1,2.5,0.5,3.7,0.4c0.9-0.1,1.8-0.5,2.8-0.9c-1.9-0.1-3.3-1.8-5.3-1.4
		c-0.2,0.1-0.6,0.1-0.8,0c-2-1.7-4.6-1.8-7.1-2.6c0.7-0.8,1.3-1.3,2.3-1.3c2.2,0.1,4.2-0.3,5.8-2c1.4-1.5,3.5-1.1,5.3-1.5
		c0.5-0.1,1.3,0.4,1.3-0.7c0-0.3,0.8-0.2,1.3-0.1c1.9,0,3.7-0.1,5.5-0.9c0.8-0.4,1.8-0.6,2.4,0.6c0.2,0.4,0.7,0.4,1,0.3
		c2.6-0.6,5.1-0.4,7.6,0.6c1.4,0.6,3.1,0.2,4.6,0.2c2.9-0.1,5.8,0.5,8.7,0.6c1.2,0,2.4,0.3,3.7,0.2c2-0.1,4,0.2,5.9,0.8
		c2.3,0.8,4.9,0.4,7.2,1.3c1.2,0.5,2.4,0.6,3.6,0.6c0.8,0,1.6,0.5,2.1-0.9c0.3-0.7,1.7-0.5,2.6-0.4c2.7,0.2,5.1-0.8,7.6-1.2
		c1-0.2,2-0.3,3,0c-2.5,0.9-5.1,1.2-7.6,2.4c0.3,0.6,0.5,1.1,1.4,0.5c2.1-1.3,4.6-1.5,7-2c1.1-0.2,2.1-0.6,3.2-0.9
		c0.7-0.1,0.4-0.6,0.2-1C116.4,43.7,116.5,43.7,116.5,43.6z M241.7,176.9c-1.1,1.7-1.1,1.7,0.4,3.2
		C243.4,179.1,243.4,178.9,241.7,176.9z M271.4,80.1c-1.4,0.3-2.9,0.6-4.1,1.5C269,81.9,270.3,81.1,271.4,80.1z M184.8,50.1
		c-0.7-0.9-0.7-0.9-2-0.6C183.4,49.9,184,50.3,184.8,50.1z"/>
	<path class="st1" d="M695.7,226.2c1.6,0.4,3.1,1.3,4.8,1.3c1.2,0,2.3,1,3.6,0.1c0.2-0.2,0.9,0.2,0.8,0.8c0,0.2-0.1,0.6-0.3,0.7
		c-1.7,1-1.3,3.2-2.8,4.5c1.3,1,2.4,1.8,3.7,2.5c1.7,0.9,3.6,1.6,5,3.1c1.3,1.3,3.1,1.1,3.8-0.6c0.6-1.7,1.3-3.3,1.1-5.3
		c-0.2-2.8,0.4-5.7,1.7-8.3c0.6-0.1,1,0.3,1,0.7c0.3,2,1.8,3.6,1.8,5.7c0,0.7,0.3,1.4,1.6,1.4c1,0,2.3,0.9,2.2,2.5
		c0,1.1,0.2,2.2,1,3.1c0.5,0.6,0.6,1.3,0.6,2c-0.1,1.7,0.7,2.8,2.3,3.4c1.3,0.5,2.2,1.9,3.5,1.7c0.5,1.9,2.2,3.1,2.1,5.2
		c1.8-0.4,2.9,0,2.8,1.9c0,0.5,0.5,0.9,0.9,1.2c2.5,1.8,4.6,3.7,4,7.2c0,0.2,0,0.6,0.1,0.7c1.3,1.7,0.9,3.4,0.3,5.2
		c-0.7,1.9-0.1,4-1.6,5.7c-0.2,0.3-0.3,0.8-0.6,1c-1.4,0.6-1.8,1.9-2.3,3.1c-0.5,1.1-0.7,2.4-1.9,3.3c-0.9,0.6-0.7,2-0.7,3.1
		c0,1.2-0.7,1.9-1.8,1.9c-2.5-0.1-4.3,1.4-6.3,2.4c-1.7,0.1-2-1.9-3.4-2.2c-1.5,1.8-2.8,2.2-5,1.3c-0.6-0.2-1.2-0.4-1.9-0.5
		c-2.5-0.1-3.9-1.3-4.3-3.7c-0.1-1-1-1.5-1.2-2.4c-0.8-0.3-1.4,0.6-2.1,0.1c0.4-1.7,0.4-1.7-0.6-2.8c-0.7,0.7-0.6,2.5-2.5,1.9
		c1.6-1.4,1.5-3.4,2.4-5.1c-1.7,1.7-3.9,2.5-5.1,4.7c-1-0.7-0.9-1.8-1.4-2.6c-0.7-1.1-2.2-1.6-2.4-3.2c-0.1-0.5-0.8-0.4-1.3-0.5
		c-1.4-0.3-2.8-0.2-4-1.2c-0.3-0.2-0.7-0.4-1.1-0.3c-2.4,0.4-4.8,0-7.1,1.1c-0.8,0.4-1.8,0.5-2.7,0.5c-2.6,0.2-4.9,0.8-6.7,3
		c-0.9,1.1-2.5,0.8-3.7,0.6c-1.5-0.2-3-0.1-4.4,0.2c-1.2,0.2-2.3,0.8-3.4,1.5c-1.8,1.2-4,1.4-5.8,0.2c-0.4-0.2-0.7-0.5-1.1-0.8
		c-1.3-0.9-1.3-0.9-0.1-2.1c0.8-0.8,1.1-2.9,0.3-4.2c-0.9-1.6-1.7-3.1-1.6-4.9c0-0.1,0-0.3-0.1-0.4c-1.4-1.8-1.8-4.3-3.2-6.1
		c0.5,0.2,0.4-1.3,1.3-0.5c0.2,0.2,0.6-0.5,0.4-0.9c-0.2-0.5-0.6-0.9-0.9-1.3c-0.7-1.1-1.2-2.1-0.3-3.4c0.4-0.5,0.5-1.2,0.3-1.9
		c-0.2-0.6-0.3-1.3,0.4-1.9c0.4-0.2,0.3,0.7,0.8,0.4c2.2-1.5,4-3.9,7.1-3.7c0.7,0,1.1-0.7,1.7-0.8c1.2-0.1,2.3-0.9,3.6-0.8
		c1.4,0.1,2.7-0.8,3.5-2.1c0.3-0.6,0.6-1.1,1.2-1.5c0.3-0.2,0.7-0.5,0.5-0.9c-0.6-1.5,0.5-2.1,1.3-2.9c0.9,0.1,0.8,1.1,1.4,1.3
		c0.4,0,0.6-0.5,1-0.4c0.1-0.6-0.9-0.8-0.4-1.5c0.4-0.5,1,0.1,1.6,0c0.2-0.9-0.3-2.3,1.5-2.1c0.1-1.3,1.2-1.5,2-2.2
		c2.7-2.3,4.1-0.9,5,1.6c1-1.2,2.2-0.5,3.2-0.1c1-0.8-0.1-1.1-0.2-1.8c1.1-1.5,1.9-3.3,3.6-4.6c1,0.1,2.2,0.4,3.3-0.1
		c0.3-0.4,0-0.9,0-1.3C695.6,226.3,695.7,226.2,695.7,226.2z"/>
	<path class="st1" d="M349.6,40.2c1,0.7,1.6,2,3.1,1.5c0.5,0.7,0.7,1.4,0.6,2.4c-2.2-0.5-4.5,0.5-6.5-1.6c-0.8-0.9-2.2-1.8-3.6-0.4
		c-0.6,0.6-1.7,0.3-2.7,0.4c-0.9,0-1.8,0.1-2.3,1.5c4.5,0.8,9-0.5,13.3,0.9c-1.4,0.8-3.1,1.3-4.9,1.5c-0.4,0-0.9,0-1.3,0.2
		c-3.2,2-6.8,1.9-10.3,2c-0.2,0-0.5-0.1-0.5,0c-1.6,1.9-3.2,0.6-4.8-0.3c-0.1,0.6,0.1,1.4-0.8,1.5c-1.3,0.2-2.1,1.1-3,2
		c-0.9,0.9-1.9,1.5-3.3,1.4c-0.3,0-0.6-0.1-0.7,0c-0.6,0.6-1.1,1.3-1.9,1.1c-0.7-0.2-1.4,0.3-2,0.2c-0.4-0.4,0.4-0.9-0.4-1.5
		c-1,0-1.5,2.1-3,1.6c-1.5-0.5-1.7,2.2-3.6,1.2c0.7,1.4,0,1.7-0.9,1.7c0.1,0.6,0.8,0.5,0.8,1.2c-1,0.1-1.7,1-2.3,1.6
		c-0.9,1-2,0.4-2.8,0.9c1.7,1.1,1.6,1.4,0.5,3c-0.5,0.8-1.1,1.8-0.8,2.9c-1.2,0.5-2.3-1.2-3.6,0.6c0.1-2.2-2.6-1.1-2.3-3.2
		c-1.6,0.7-3.2,0.2-4.6,1.2c-0.6-1.8-3.5-1-3.3-3.4c-1-0.4-2.6,0-1.9-1.9c-1,0.1-1.2-1.3-2.2-1.3c-0.3,0-0.5-0.1-0.7-0.5
		c0.3-1.3,2.1-0.7,2.7-1.9c-1.4-0.4-2.5,0.5-3.7,0.8c-0.4-0.5-0.3-1-0.4-1.5c-0.2-0.6-0.3-1.2-1.2-1.2c-1.3-0.1-1.1-1.4-1.6-2.2
		c0.4-0.6,1.3,0,1.7-0.7c-0.5-0.4-1.2-0.1-1.7-0.3c-0.5-0.4-0.2-1-0.5-1.5c2.3-0.8,4.5,0.2,6.6-0.2c-1.3-1.6-3.5-0.9-5-1.9
		c0.5-0.7,1.1-0.2,1.6-0.2c0.8,0,1.6,0.4,2.5-0.4c0.9-0.8,0.3-1.6,0.5-2.3c-1.9-0.6-3.4,0.9-5.1,1c-0.9,0.1-1.8,0.2-2.7-0.2
		c-0.6-0.3-1.4-0.2-1.3-1.2c0.1-1,1-0.5,1.5-0.8c0.1-0.5-0.6-0.5-0.5-1.1c2.4-0.1,4.7,0.4,7.1,1c-0.4-1.6-1.8-2.1-2.8-2.7
		c-1.1-0.7-2.5-0.5-3.8,0.4c-1,0.8-2.2,0.2-3.4-0.3c-0.1-1,1.1-1.6,0.5-2.5c0.6-0.5,1-0.1,1.2-0.2c0.2-0.3,0.2-0.5,0-0.6
		c-1.6-0.9-2.9-2.1-4.1-3.5c-0.4-0.5-1-0.7-1.7-0.8c-0.7-0.1-1.6-0.2-1.9-1.1c-0.2-0.5-0.8-0.7-1.3-0.7c-2.5-0.1-4.8-1-7.3-1.1
		c-1.5-0.1-3-0.2-4.5,0.1c-1.5,0.3-3.3-0.2-4.6,0.3c-2.2,0.8-4.1-0.2-6.1-0.2c0.3-0.6,1-0.4,1.3-1c-2.3-0.4-4.6,0.2-6.7-1
		c1-0.8,2.1-0.2,3.3-0.3c-1.6-2-4.1-1-5.8-2.1c0-0.8,0.5-0.9,1.1-0.9c4.5,0,8.9-1.6,13.5-1.3c1.1,0.1,2.2,0,2.5-1.6
		c-1.9-0.8-3.9,0.4-5.7-0.7c0.3-0.9,1.1-1,1.9-1.1c3.5-0.5,6.9-1.1,10.4-1c0.8,0,1.7,0.3,1.8-1.1c0-0.5,0.7-0.4,1.2-0.5
		c1.4-0.1,2.7,0.2,4.1,0.5c0.6,0.1,1.3,0.3,1.9,0.1c0.1-0.4-0.5-0.4-0.3-1c3,0,6-0.9,9.1-0.5c0.6,0.4,0.3,1.1,0.7,1.5
		c0.3,0.2,0.8,0.2,0.9,0c1-1.6,2.4-1.1,3.8-0.8c0.9,0.2,1.8,0.3,2.8,0.5c-0.2-0.9-1-0.7-1.3-1.5c2.3-0.5,4.5,0.2,6.7,0.5
		c2.1,0.3,4.1,0.6,6.2,1c1.1,0.2,1.9-0.1,2.2-1.4c-0.6-0.7-1.7-0.5-2.4-1.2c0.9-0.7,1.9-0.3,2.9-0.4c3.3-0.4,6.5-0.1,9.7,0.5
		c0.8,0.2,2,0.7,2.3-0.8c0-0.2,0.5-0.3,0.8-0.3c0.6-0.1,1.2-0.2,1.7-0.1c7.9,0.1,15.7-0.5,23.6,0.4c3.2,0.4,6.5,1,9.7,1.6
		c-1.5,1-3.2,0.5-4.7,0.9c-1.7,0.3-3.4,0.1-5.1,0.1c-1.7,0-3.4-0.3-5,0c-1.6,0.3-3.3-0.2-5,0.3c0.2,0.8,0.8,0.5,1.2,0.5
		c2.2,0,4.4,0.1,6.6-0.1c1.2-0.1,2.4-0.2,3.5,0.1c2.4,0.6,4.6,0.3,6.9-0.1c0.9-0.1,1.8-0.4,2.8,0.3c-1.4,1.4-3.6,0.9-4.8,2.4
		c0.7,0.7,1.3,0.1,1.9-0.1c3.7-1.2,7.3-2.3,11.2-1.8c0.4,0.1,0.9,0,1.3-0.2c3.4-1.3,6.8-0.5,10.2,0.1c0.2,0,0.3,0.1,0.5,0.6
		c-3,0-5.6,1.4-8.4,2c-2.7,0.6-5.6-0.2-8.2,0.9c1.7,0.2,3.4-0.4,5.2,0.3c-0.6,0.9-1.5,0.7-2.2,0.8c-0.8,0.1-1.5,0.1-1.9,1
		c-0.2,0.6-0.7,0.8-1.2,0.7c-1.8-0.3-2.6,1-3.6,2.3c1.3,0.4,2.1-0.8,3.1-0.6c0.9,0.2,1.9,0,2.8,0.6c-0.6,0.7-1.3,0.1-1.8,0.6
		c1.3,1,3.2-0.1,4.5,1.1c-1.5,0.5-3.1,0.2-4.6,0.2c-1.6,0-3,0.8-4.6,0.4c1.2,1.2,2.8,0.8,4.1,1.1c0.6,0.1,1.2,0,1.7,0.4
		c0.4,0.3,0.7,0.6,0.5,1.2c-0.2,0.5-0.5,0.7-1.1,0.7c-0.7-0.1-1.4-0.5-2.1,0.1c1,1.2,2.7,0.6,3.9,1.6c-1.3,0.8-2.6,0.4-3.8,0.6
		c-0.4,0.7,0.9,0.7,0.5,1.4c0,0.3-0.2,0.4-0.4,0.4c-2.6,0.2-5.2,0.8-7.6-0.6c-2.5,0.8-5.2,0.4-7.7,1.1c0,0-0.1,0.1-0.1,0.2
		c0.8,1,2,0.8,3.1,0.8c1.8,0.1,3.5,0.5,5.1,1.1C348.6,40.3,349.1,40.4,349.6,40.2L349.6,40.2z M249.7,28.6c1.3,0.4,2.7,0.5,4.1-0.3
		C252.2,27.2,251,28.1,249.7,28.6z"/>
	<path class="st1" d="M220.9,18c-0.2-0.7-1.1-0.4-1.2-1.2c3-0.7,6-1,9-0.6c0.9,0.1,1.8,0.7,2.6-0.4c0.1-0.2,0.9-0.1,1.3,0
		c1.5,0.3,3.1,0,4.6,0.5c0.8,0.3,1.1-0.7,1.9-0.7c1.9,0.1,3.7,1,5.6,0c4.6,0.8,9.2,0.3,13.8,0.8c1.6,0.2,3.3,0.4,4.9,0.8
		c-2.4,0.9-4.8,1.4-7.4,0.9c-1.6-0.3-3.3,0.1-5.2,0.5c1.7,1.3,3.4-0.5,5,0.8c-3.8,0.5-7.3,1.8-11,2.2c-0.5,1.9-2.2,1.3-3.5,1.4
		c-1.4,0.1-2.8-0.1-4.1-0.2c-0.3,0.5,0.4,0.5,0.3,1c-1.1,0-2.3,0-3.3,0c-0.4,0.6,0.4,0.9,0.1,1.4c-4.7,2.8-4.1,2-6.8,1.8
		c-0.3,0.8-0.8,1.5-1.8,1.6c0.6,1,1.8,0.2,2.3,1.1c-0.3,0.6-0.8,0.6-1.4,0.7c-1,0.1-2.1,0.2-3.1,0.4c-1.2,0.2-2.2,0.4-3.3-0.5
		c-0.7-0.5-1.6-0.4-2.4-0.1c-0.4,0.1-0.7,0.3-1.1,0.3c-1.8,0-3.5-0.3-5.3,0c-1.7,0.3-3.8,0.3-5.6-0.4c-0.4-0.2-0.7,0.1-1.1,0.2
		c-0.8,0.2-1.6,0.3-2.5-0.4c1.2-1,2.7-0.8,3.9-1.2c0.2-0.7-0.7-0.6-0.6-1.1c0-0.1,0.1-0.2,0.2-0.2c1.7-0.1,3.4,0,5,0.7
		c1.4,0.6,2.9,0.6,4.4,0.3c-2.6,0-4.3-2.8-7.2-1.8c1.1-1.9,2.9-1.3,4.5-1.5c1.7-0.2,3.3,0.5,5.1,0.2c-2.7-1-5.6-1.5-8.3-2.7
		c0.4-0.7,0.8-0.6,1.3-0.6c1.3,0.1,2.6-0.1,3.9,0.2c2,0.3,3.9,0.6,5.9-0.5c1.3-0.7,3-0.2,4.5-0.5c0.3-0.1,0.8,0.1,1.1-0.5
		c-2.6-0.6-5,0.6-7.4,0.5c-2.4-0.1-4.9-0.3-7.3,0.1c-0.4-0.6,0.2-0.8,0.7-1.3c-3.5-0.6-6.5,0.1-9.6,1c0.5,1.2,1.2,1.9,2.4,1
		c0.9-0.7,2-0.1,2.1,0.5c0.3,1.6,1.3,1.3,2.3,1.3c0.5,0,0.9,0,1.6,0.1c-1.8,0.8-3.6,0.6-5.1,1.6c-0.3,0.2-1.1-0.1-1.7-0.2
		c-0.4,0.4-0.3,1.4-1.1,1.1c-1.1-0.4-2,0.1-3,0.1c-2.5,0.2-5-0.2-7.4-1.3c-0.7-0.3-0.5-1-1-1.3c-1.9,0.6-3.3-0.5-4.8-1.3
		c0.7-0.1,1.4,0.1,2-0.1c0.2-1,0.2-1,1.8-1.3c0.1-0.4-0.4-0.5-0.4-0.8c1.3-0.5,2.7-0.4,4.1-0.8c1.2-0.4,2.4,0.2,3.5,0.8
		c1,0.6,2,0.7,3.2,0.7c1,0,1.3-0.4,1-1.4c-1.1-0.7-2.6,0.3-3.6-0.9c0.6-0.8,1.4-0.7,2.2-0.7c1.2-0.1,2.5-0.1,3.7-0.1
		c2.2-0.1,4.5-0.1,6.7-0.5c2.4-0.4,4.9,0.1,7.4,0.3C219.1,17.9,220,18.1,220.9,18z"/>
	<path class="st1" d="M707,219.2c0.4-0.9,0.8-1.6,1.6-1.9c1.1-0.3,0.7-1.2,0.4-1.7c-1.2-2.6-3.1-4.2-6-4.6c-1.9-0.3-3.3-1.5-5.1-2.3
		c-0.4,0.4-0.6,1.3-1.6,1.2c-0.2-1.2-0.4-2.4-2-2.8c0.7-0.8,2,0.3,2.2-1.1c-2,0.4-2.4-1.9-4.1-2.2c0.9-1.7,2.5-2.4,3.9-1.8
		c0.4,0.2,0.8,0.3,1.3,0.5c1.1,0.3,1.8,0.7,1.4,2.1c-0.2,0.8,1.4,3.4,2.1,3.7c0.9,0.3,1.4-0.4,1.7-1c0.8-1.6,2.8-1.7,3.8-3
		c0.4-0.5,0.9-0.1,1.4,0.1c3.5,1.7,7.2,2.6,10.8,3.9c1.8,0.6,3.5,1.5,5.2,2.6c0.8,0.5,0.9,1.2,0.7,1.9c1.4,1.2,3.7,0.6,4.6,2.6
		c-0.4,0.7-1.2,0.2-1.7,0.8c0,0.1-0.1,0.2,0,0.4c0.2,0.7,0.6,1.2,1.2,1.5c0.8,0.4,1.3,1,1.6,1.8c0.2,0.4,0.4,0.9,0.9,1
		c1.8,0.3,2.6,2.1,4.1,2.9c0.1,0.1,0.1,0.3,0.1,0.5c-0.3,0.5-0.8,0.4-1,0.2c-0.8-0.7-1.7-0.9-2.7-0.9c-2.9-0.1-4.7-1.7-6.2-4
		c-1-1.5-4-1.9-5.3-0.8c-0.4,0.4-0.9,0.7-1.5,0.7c0.3,0.5,0.5,0.8,0.7,1.2c-0.2,0.1-0.4,0.3-0.6,0.4c-1.6,0.9-4.5,0.5-5.7-0.7
		c-1.5-1.5-2.6-1.7-4.7-0.8C708,219.6,707.6,219.6,707,219.2z"/>
	<path class="st1" d="M664.8,198.6c-3.1,0.4-3.2,0.6-2.8,3.8c-0.7,0.4-1.6,0.7-2.1,1.5c-0.2,0.4-0.5,0.7-0.6,1.2
		c-0.4,3.4-0.6,3.6-3.7,4.9c-0.4-0.8-0.4-2.4-2.2-1.5c-0.3,0.1-1-0.8-1.7-1c-0.5,0.9-1.5,0.7-2.3,1c-0.4-0.3-0.1-0.9-0.7-1.3
		c-0.9,0.4-2,0.3-3.2,0c-0.1-0.7-0.1-1.5-0.2-2.3c-0.1-0.4,0-1-0.4-1.3c-1.1-0.9-1.2-2.1-1.8-3.3c-0.8-1.7-0.1-2.8,0.8-4.2
		c0.9,0.9,2.2,0.7,3.2,1.4c0.6-1.9,1.3-3.5,3.5-3.6c0.6,0,1.1-0.5,1.6-1.1c1.2-1.6,2.4-3.2,4.6-3.4c0-1,1.1-1.2,1.5-1.9
		c0.5-0.8,1.1-1.5,1.6-2.2c0.4,0.1,1.1-0.1,1.3,0.3c0.7,2,2.8,2.1,4.2,3.2c-0.4,1-1.3,0.7-2,0.9c-0.3,0.6,0.6,0.7,0.3,1.4
		c-1.2,0-1.5,1.3-2.4,1.9c0.4,1.1,1.6,1.8,1.4,3.4C662.7,197.2,664.4,197.4,664.8,198.6z"/>
	<path class="st1" d="M499.9,236.6c1.7-0.7,3.5-0.8,5-1.8c1.4-1,2.9-1.9,2.6-3.9c1.7-0.1,1.9-0.4,2.5-3c1,0.4,2,1,2,2
		c0,2,1.8,3.9,0.7,6c-0.8,0-0.8-0.7-1.3-0.8c-0.5,0.8,0.5,1.4,0.4,2.3c-1.4,1.1-0.9,2.9-1.4,4.4c-1.3,3.8-2.5,7.6-3.7,11.5
		c-0.2,0.7-0.4,1.4-0.6,2c-0.4,0.9-0.9,1.6-2,1.5c-0.3,0-0.7,0-0.9,0.2c-1.5,1.4-2.8,0.1-3.9-0.5c-1-0.5-1.6-1.9-1.3-3.2
		c0.1-0.7-0.1-1.2-0.4-1.8c-0.8-1.4-0.6-2.3,0.5-3.5c0.6-0.7,1-1.5,1.4-2.3c0.4-0.7,0.3-1.4,0.1-2.2c-0.4-1.8-1.7-3.6-0.1-5.4
		C499.9,237.5,499.5,237,499.9,236.6z"/>
	<path class="st1" d="M696.1,128.3c-1-0.6-1-1.3-1.4-1.8c0.6-1.6,2.7-0.8,3.7-2.2c-2.4-0.4-4.3,1.4-6.6,0.9c0.2,1.3,1.1,0.8,1.7,1
		c0.5,2.3-0.4,4.1-2,5.7c-0.4-0.4-0.9-0.5-1.4-0.6c-0.3-1.2,0.2-2.3,0.7-3.1c-0.5-1-1-0.1-1.4-0.2c-0.5-0.2-0.8-0.6-1-1.3
		c1.3-0.5,2.4-1.2,3.4-2.2c1.1-0.9,2.5-1.8,3.7-2.7c0.7-0.5,1.5,0,2.3-0.1c1.3-0.2,2.6-0.9,3.9-0.1c0.3,0.2,0.9-0.1,1-0.4
		c0.3-1.3,1.8-1.7,1.9-3.1c0.1-0.7,0.6-0.9,1.3-0.9c0.5,0.6-0.7,0.9-0.2,1.5c2.4-0.7,4.4-2,5.7-4.2c0.5-0.8,0.7-1.5,0.5-2.5
		c-0.4-1.9,0.4-2.6,2.4-2.2c0-0.6-0.5-1.1-0.3-1.7c-0.9-0.5-1,0.8-1.9,0.5c0.2-0.9-0.4-1.6-0.8-2.3c0.3-1.1,2.1-0.7,1.6-2.2
		c0.7,0.2,1.1,0.3,1.7,0.4c-0.2-1.2,1.4-1.6,1.2-2.9c-0.1-0.3-0.1-0.6-0.3-0.9c-0.2-0.4-0.2-0.8,0.2-1.1c0.5-0.3,0.8,0,1.2,0.3
		c0.7,0.6,1.5,1.3,2.3,1.8c1.4,0.9,2.9,1.6,4.6,0.3c-0.6,0.9-0.1,1.5,0.3,2.2c-0.8,1-1.8,0.8-2.8,0.9c-1.1,0.1-1.5,1.4-2.3,2.1
		c-1.7-0.7-3.3-2.2-5.3-0.6c1.4,1.5,1.9,3.6,2.7,5.6c0.4,1-0.6,2.1-1.4,2.8c-0.8,0.6-1.2,1.1-0.8,2.1c0.2,0.6-0.1,1.1-0.4,1.6
		c-0.2,0.4-0.7,0.8-0.4,1.2c0.8,1.6-0.7,2-1.2,2.8c-0.7-0.2-0.3-0.7-0.6-1c-1,0.1-1.5,0.8-1.9,1.6c-0.5-0.1-0.7-0.9-1.2-0.4
		c-1.2,1.2-2.4,0.6-3.6,0.1c-0.6,0.4,0.1,0.7,0.1,1.2c-0.9,0.3-1.8,0.7-2,1.8c-2-0.5-2.1-0.6-1.9-2.4c-0.7-0.1-1.5-0.4-2.1,0.2
		c0,0.9,0.9,0.5,1.1,1.3c-0.1,0.5-0.5,1.5-1.2,1.3C697.3,126.2,696.6,127,696.1,128.3z"/>
	<path class="st1" d="M635.8,205.7c-0.2-0.4-1-0.1-0.9-0.8c0.1-0.8,0.9-0.5,1.5-0.7c-0.1,1.4,1.8,1.8,1.4,3.3
		c-0.5-0.1-0.9-0.3-1.2-0.3c-0.9,2.2-0.1,4.4-0.6,6.5l0,0c-1-0.5-1.9-0.5-2.8,0.3c-1.2-1.4-2.8-2.5-4.1-3.9
		c-1.7-1.8-3.9-3.1-4.6-5.8c-0.4-1.5-1.4-3-2.8-3.9c-0.9-0.5-1-1.5-1.3-2.3c-0.3-0.9-0.7-1.6-1.6-2c-0.4-0.1-0.9-0.4-0.9-0.6
		c-0.4-1.9-1.9-2.6-3.3-3.6c-1.1-0.8-2-2-2-3.4c0.6-0.5,1-0.2,1.4,0.1c0.6,0.5,1.2,0.8,2,0.7c1.7-0.4,2.6,0.7,3.2,1.9
		c0.4,0.7,0.8,1.2,1.4,1.5c1.2,0.7,2.5,1.4,3.2,2.6c0.6,1,1.8,0.4,2.4,1.4c0.5,0.8,1.6,1.1,2.1,2.1c0.2,0.5,0.9,0.6,1.4,0.6
		c0.8,0,1.3,0.5,1.7,1.1c0.2,0.7-0.6,1.1-0.7,1.7c0.3,1,1.4,0.6,2,1.2c0.2,1.5,0.9,2.6,2.6,2.9c0.2,0.2,0.4,0.6,0.7,0.3
		C636.3,206.2,636,205.9,635.8,205.7z"/>
	<path class="st1" d="M401.3,83.2c1.3-0.5,2.6-0.7,3.2,0.4c0.8,1.5-1.3,1.4-1.6,2.4c0.2,0.6,0.9,0.1,1.1,0.7
		c-0.7,0.8-1.9,1.2-2.9,1.1c-2.3-0.2-4.6,0.6-6.9,0.2c-0.2,0-0.5,0-0.6,0.1c-1.1,1.6-2.7,0.2-4,0.5c0.9-0.9,1.7-2.1,3.5-1.9
		c-1-1.4-2.5-0.7-3.6-1.2c0.3-0.8,0.9-0.6,1.3-0.8c1.1-0.6,1.2-0.8,0.1-1.7c1.2-0.7,1.2-0.7,3-0.8c0.2-0.8,0.7-1.6-0.6-2.1
		c-0.6-0.2-0.1-0.8-0.1-1.3c-1.2,0.1-2.4,0.4-3.7,0.2c0.4-0.9,1.2-1.6,0.4-2.5c-0.9-0.2-1.1,0.6-1.5,1.3c-0.3-1.2,0.3-1.9,0.6-2.8
		c-0.5-0.1-1,0.6-1.4,0.1c0.5-1.6,1.1-3.1,2.4-4.5c1.2,0.5,2.6-0.4,4.1,0.1c-0.5,1.1-1.9,0.8-2.4,1.9c1.6,0,3.1,0,4.6,0
		c0.4,1.6-1.5,2-1.4,3.5c1.2,0.5,2.4,1.1,2.8,2.5c0.1,0.4,0.5,0.6,0.9,0.7c1.8,0.4,1.9,2.3,2.9,3.3
		C401.6,82.6,401.4,82.8,401.3,83.2z"/>
	<path class="st1" d="M447.7,24.6c0.2-0.9,0.9-0.5,1.1-1.2c-2.1-0.2-4.2-0.1-6.5,0.1c1.4,1.5,3.4,0.8,4.8,1.8
		c-0.3,0.4-0.7,0.5-1.1,0.5c-1.5-0.1-2.7,0.3-3.4,1.7c-0.3,0.6-0.9,0.7-1.5,0.9c-0.4,0.1-0.9,0.1-1.2,0.5c-0.6,0.7-1.1,1.6-2.2,1.2
		c-1.5-0.6-3.5-0.2-4.5-1.8c-0.3-0.5-1-0.3-1.1-1.1c1.3-0.2,2.6-0.2,4-0.8c-0.8-0.6-1.5-0.9-2.3-0.5c-3,1.2-3.4,1.1-6.6-0.4
		c0.1-0.5,0.9-0.1,0.8-0.8c-0.8-0.1-2,0.6-2.7-0.9c1.9-0.2,3.6-1.1,5.3,0.1c0.5,0.3,1.3,0.6,1.6,0.2c1.2-1.3,2.2-0.5,3.2,0.2
		c0.3,0.2,0.7,0.4,1.1,0.2c0.3-0.4-0.4-0.8,0.1-1.5c1.3,0.3,3-0.3,4.1,1.4c0.6,0.1,1-0.5,1.5-0.5c0.2-0.5-0.3-0.5-0.4-0.8
		c0.4-0.6,3.5-1.5,4.2-1.2c1.6,0.5,4.7,0.5,6.1-0.2c0.4,0.7,0.9,1.2,1.9,0.6c0.7-0.4,1.6-0.5,2.4,0c0.8,0.5,1.6,0.1,2.5,0.2
		c0.8,0.1,1.5,0,2.3,0.5C456.9,24.7,452.3,24.7,447.7,24.6z"/>
	<path class="st1" d="M526.3,37.4c0.2,0.7,0,1-0.6,1.3c-1.6,0.8-1.6,1.9-0.3,3c0.7,0.6,1.7,0.8,2.5,1.4c-2.5,0.1-4.9,0.8-7.5-0.1
		c-0.3-0.4,0.5-0.4,0.6-0.8c-1.2-0.5-2.4-1-3.8-0.6c-0.8,0.2-1.6,0.2-1.9-0.8c0.8-1.2,2.7,0.1,3.3-1.5c-0.1-0.4-0.5-0.2-0.7-0.4
		c1.1-1.2,2.8-0.8,4.1-1.2c0.1-0.8-0.8-0.4-0.8-1c0.2-0.4,0.7-0.5,1.1-0.6c1.7-0.1,3-1,4.1-2.3c0.2-0.2,0.5-0.4,0.9-0.4
		c2.7-0.4,5.1-1.8,7.9-1.6c0.6,0,1.1-0.1,1.7-0.5c0.6-0.4,1.2-0.4,1.9-0.3c2.8,0.5,5.6-0.2,8.3-0.6c1.6-0.3,3.3-0.5,4.9-0.8
		c0.7-0.1,1.6-0.1,2.2,0.6c-0.6,0.9-1.5,0.9-2.4,1.1c-4.7,0.7-9.5,1.3-14.3,2c-0.8,0.1-1.7,0-2.2,0.9c-0.1,0.2-0.6,0.5-0.8,0.4
		c-1.7-0.3-3,1-4.5,1.3c-0.2,0-0.5,0-0.6,0.3C528.9,37.5,527.7,37.5,526.3,37.4z"/>
	<path class="st1" d="M278.3,380.4c0.8-1.3,1.7-2,3-2.2c0.8-0.1,1.7-0.2,2.5-0.3c1.7-0.1,3.3-0.2,4.1-2.2c0.4-0.9,1.5-1.2,2.4-1.4
		c3.3-0.7,6.7-0.5,10.1-0.4c0.4,0,0.9,0.2,1.3,0.4c1,0.4,1.7,1,1.8,2.1c0.1,1.2-0.7,1.9-1.7,2.4c-1.2,0.5-2.5,0.6-3.8,0.7
		c-6.2,0.3-12.4,0.7-18.6,1C279,380.4,278.7,380.4,278.3,380.4z"/>
	<path class="st1" d="M356.2,53.3c1,0.8,1.7,1.3,2.5,0.4c0.1-0.1,0.6-0.2,0.7-0.1c1.1,0.9,2.4-0.4,3.5,0.2c0.1,0.1,0.4,0.1,0.6,0
		c2-1.6,3.6-0.6,5.2,0.7c0.3,0.3,1,0.2,1.5,0.3c0.4,0.1,0.7,0.4,0.8,0.8c0.1,0.4-0.2,0.8-0.5,1c-2.2,1.2-4.7,1.9-7.2,2.4
		c-0.6,0.1-1.3,0.1-1.9,0.4c-1.2,0.7-2.6,0.6-3.8,0.2c-1.8-0.6-3.7-0.7-5.6-0.7c-0.3,0-0.5,0-0.7-0.3c0-0.6,0.8-0.4,0.8-1
		c-0.9-1.3-2.5-0.2-3.8-0.8c1.2-1,2.9,0.1,4-1.1c-1.6-1.5-3.6,0.5-5.3-0.8c1.2-0.1,1.6-1.9,3-1c0.3-0.7,0.7-0.9,1.6-0.8
		c1.3,0.3,2.5,0.3,2,2.3C355,55.2,356.1,55.1,356.2,53.3z"/>
	<path class="st1" d="M121.4,40.3c1.2-1.3,2.1-2.8,3.7-3.4c-0.2-1.1-1.3-1-1.6-2c3.2,0.2,6.3-0.6,9.4,0.1c1.7,0.4,3.3,0.6,5,0.5
		c2.1-0.2,4,0.3,6.1,1.4c-1,0.2-1.8,0.5-2.6,0.5c-2.7,0.2-5.1,1.5-7.5,2.4c-0.7,2.2-2.7,1.6-4.2,2.1c-1.5,0.5-2.7,0.7-3.9-0.4
		c-0.7-0.6-1.7-0.8-2.7-0.9C122.5,40.6,121.9,40.7,121.4,40.3z"/>
	<path class="st1" d="M770.9,302.8c1.5-1.8,3-3.5,5.3-4.5c2.1-1,4.5-1.7,5.7-4.2c0.5-0.9,1.7-1.4,1.9-2.7c0-0.5,0.7-0.4,1.2-0.2
		c0.5,0.3,0.6,0.8,0.9,1.2c0.6,0.1,1.1-0.5,1.8-0.3c1.2,3.1-2,3.4-3.2,5c0.1,0.3,0.7,0.2,0.6,0.9c-2.3-0.4-3.4,1-4.3,2.9
		c-1.4,3.2-3.4,4-6.7,2.7c-0.6-0.2-1.1-0.6-1.8-0.2C771.9,303.6,771.4,303.5,770.9,302.8z"/>
	<path class="st1" d="M674.9,202.9c-1.7,0.2-2.5,1.6-4,2.3c0.9,1.1,1.9,2,1.7,3.6c-0.1,0.6,0.8,0.8,0.9,1.6c-0.9,0-1.5,0.7-2.2,1.2
		c-1.3-0.4-0.1-1.9-1.2-2.3c-1.1-0.4-0.5-1.4-0.6-2.2c-0.8-0.3-1.4-0.2-1.3,0.7c0.1,1.1-0.2,2.2,0,3.3c0.3,1.8-0.2,2.1-2.1,2.1
		c-0.7-1.4,1.7-3.7-1.2-4.8c-0.4-0.8-0.2-1.6,0.4-2.6c0.7-1.4,1.1-3,1.3-4.5c0.3-1.9,1.7-2.5,2.9-3.4c0.3-0.2,0.7,0,1.1,0.2
		c1.8,0.8,3.8,0.7,5.7,0.6c0.5,0,1-0.3,1.2-0.8c0.2-0.4,0.5-1,1.1-0.9c-0.3,2.4-1.9,3.6-4,3c-1.9-0.6-3.7-0.1-5.6-0.3
		c-0.7-0.1-1.2,0.5-1.4,1.2c-0.2,0.6-0.2,1.3,0.4,1.8c0.8,0.7,1.3,1.9,2.8,0.4c0.7-0.7,2.5-0.6,3.8-0.9
		C674.7,202.1,674.9,202.4,674.9,202.9z"/>
	<path class="st1" d="M196,31.9c-0.6-0.6-1.5-0.6-1.9-1.5c2.4-0.5,4.7-0.3,7,0.3c-0.3,0.3-0.4,0.5-0.6,0.7c0.1,0.1,0.1,0.2,0.1,0.2
		c1.8,0.9,3.7,1.2,5.7,0.6c0.5-0.1,1.1,0.2,1.7,0.4c0.5,0.2,1,0.3,1.5,0.1c3.1-1.1,6.3-1.1,9.4-0.9c1.7,0.1,3.4,0.7,5.2,1.3
		c-1.6,0.1-2.3,2.1-4.1,1.7c-1.5-0.3-3.2,0.4-4.4-1.5c-0.4,1.5-1.3,1.4-2.2,1.4c-2.2-0.2-4.5-0.2-6.7,0.1c-0.8,0.1-1.7,0.2-2.3-0.6
		c-0.4-0.5-1-0.3-1.4,0c-1.1,0.7-2.2,0.6-3.3,0.2c-0.4-0.2-0.9-0.3-1.5-0.2C196.3,34.6,195.7,33.9,196,31.9z"/>
	<path class="st1" d="M234,360.3c0.2-1.1,0.8-1.3,1.6-1.3c0.8,0,1.6,0,2.3,0c2.1,0,2.8-0.5,3.4-2.4c0.3-1.1-1.1-1.2-1-2.1
		c1.8-1.4,3.5-1.4,5,0c0.9,0.8,1.8,1.7,2.6,2.6c1.7,1.8,1.1,3.8-1.4,4.6c-1.9,0.6-3.8,0.5-5.8,0.5c-0.6,0-1.3,0.1-1.9-0.1
		c0.3-0.9,1.3-0.7,1.8-1.5C238.4,359.4,236.1,362.1,234,360.3z"/>
	<path class="st1" d="M269.2,94.2c1.2-0.7,1.2-2.4,2.5-2.9c0.3-0.1,0.3-0.2,0.3-0.5c0.2-2.2,2.8-4.7,4.9-4.9c0.2,0,0.4,0.1,0.5,0.1
		c-0.5,1.2-1.5,2.1-2.4,3.3c0.9,0,2.2-0.9,2.1,1c0,0.3,1.2,0.8,1.9,0.4c0.9-0.5,1.7-0.1,2.6,0.1c0.3,0.8-0.7,0.7-0.7,1.3
		c0.3,0.8,1.1,0.2,1.6,0.3c0.2,1-0.9,0.7-1,1.4c0.8,0.2,1.5,0.6,2.1,1.3c0,0.6-0.3,1.1-0.7,1.5c-0.8,0.2-1.4-0.6-2.2-0.6
		c-0.2-0.4,0.4-0.9-0.1-1.4c-1.4,0-2.2,2-3.9,1.5c0.3-0.7,1.3-0.5,1.5-1.4C275.4,94.6,272.4,94.6,269.2,94.2z"/>
	<path class="st1" d="M147.4,34.3c1.9-0.7,3.9-0.6,5.9-1c-4.3-0.6-8.7,0.8-13-0.3c0.3-0.8,1-0.6,1.4-0.7c0.5-0.2,1.5,0.1,1.1-1.1
		c-0.1-0.3,0.3-0.4,0.6-0.4c1.6-0.2,3.2-0.8,4.8,0.1c1.1,0.6,2.3-0.3,3.4,0.4c1.7,1.2,3.7,1,5.7,1c0.4,0,0.8,0,1.1-0.4
		c-0.5-0.9-1.5-0.9-2.4-1.3c0.8-0.5,1.5-1,2.5-1c0.7,0,1.4,0,1.7,0.7c0.7,1.8,2.3,1.6,3.4,1.2c1.2-0.4,2-0.1,2.9,0.2
		c0.3,1.3-0.3,1.8-1.4,2c-1.1,0.2-2.2,0.3-3.3,0.1c-2.5-0.5-4.8,0.2-7.1,0.7C152.2,35.1,149.8,35.2,147.4,34.3z"/>
	<path class="st1" d="M797.8,284.4c-0.3,2.4-0.8,2.9-3.2,3.6c0,2.1-1.7,3.1-2.9,4.5c-0.6,0.7-1.5,0.8-2.2-0.2c0-0.7,0.7-1.2,0.9-2
		c-0.5-1.4-2.4-1-3.3-2.3c1.5-0.5,2.3-1.6,2.3-3.1c0-1.5-0.8-2.6-1.9-3.7c-0.9-0.8-1.8-1.7-2.2-2.9c2.2-0.1,2.9,0.4,3.7,2.2
		c0.2,0.5,0.5,1.1,0.7,1.6c0.4,1.1,1,0.9,1.9,0.3C792.7,285.8,795.1,285.4,797.8,284.4z"/>
	<path class="st1" d="M377.9,84.5c1.4-0.3,1.4-0.3,2.1-2.1c-0.3-0.6-1-0.2-1.4-0.6c0.5-0.6,0.1-1.2-0.2-1.8c1.1-0.5,2-0.1,3-0.3
		c0.8-1.8,1-1.9,3.1-1.8c0.4,0,0.9-0.2,1.3-0.2c1-0.1,2-0.1,2.4,1.1c0.4,1.1-0.2,1.7-1.1,2c0.2,0.6,0.4,1.1,0.4,1.6
		c0,0.9-0.2,1.8-1.2,1.9c-1.9,0.2-3.5,1.2-5.4,1.6C379.4,86.3,378.8,86.1,377.9,84.5z"/>
	<path class="st1" d="M716.2,98.3c-0.6-0.5-0.5-1.1-0.4-1.8c0.2-1.3,0.9-2.6,0.3-4c-0.1-0.3,0-0.6,0.1-0.9c0.6-2.1,1.2-4.3-0.3-6.3
		c-0.3-0.4-0.3-1,0-1.5c0.3-0.5,0.2-1,0-1.6c0.7-0.4,1.5-0.3,2.1-0.8c1,0.8,1.5,1.7,1,2.8c-0.4,0.9-0.2,1.8,0.3,2.6
		c1,1.7,1.7,3.5,2.9,5.1c-0.4,0.3-0.6-0.1-0.9-0.2c-0.9-0.3-1.9-1.2-2.8-0.1c-0.8,1-0.8,3,0.1,4c0.2,0.2,0.5,0.4,0.8,0.6
		c0.6,0.5,0.6,1.1,0.2,1.8c-0.6-0.3-0.8-1.4-1.8-1.1C717,97.2,717,98.1,716.2,98.3z"/>
	<path class="st1" d="M668.6,168.2c-1.8-0.7-1.4-2.4-1.7-3.8c0.3-0.6,0.7,0.1,1.1-0.1c0.1-1.1,0.2-2.3,0.3-3.5
		c0.2-1.5,0.7-1.9,2-1.3c0.6,0.3,1.3,0.1,1.9,0.3c0,0.8-0.3,1.6,0.4,2.4c0.7,0.8,0,1.6-0.6,2.2c-1.9,2.1-2,2.2-0.2,5
		c0.8-0.5,1.7-1.2,2.4,0.3c0.2,0.4,0.8-0.3,1.4,0c-0.3,0.7,0.1,1.3,0.5,1.9c-1.5,0.9-1.4-1.9-3-1.1c-0.9,0.5-1.9-1.8-3-0.1
		c0.8,0.9,0.9,1.9,0,2.8c-0.9-0.5-0.9-1.6-1.4-2.3c0-0.6,0.6-0.2,0.9-0.7c0.1-0.6-1.2-0.9-0.5-1.7c0.3-0.1,0.5-0.3,0.3-0.5
		C669.1,167.8,668.8,167.9,668.6,168.2z"/>
	<path class="st1" d="M635.9,213.7c1.6,0.8,3.5,0.2,5.1,1c0.2,0.1,0.5,0,0.8,0.3c1.7,1.5,3.6,1.5,5.2,0c0.6,0.4,1.2,0.9,2,0.9
		c0.9,0.1,1.9,0.1,2.2,1.4c0.1,0.6,1,0.7,1.7,0.7c0.6,0,1.2-0.2,1.7,0c0.2,0.6-0.3,1.1,0.1,1.8c-2.2-1-4.5-0.3-6.7-0.7
		c-0.8-0.1-1.5-0.2-2.2-0.6c-1.4-0.6-2.7-1.1-4.3-0.7c-0.9,0.2-3.2-0.8-4.4-1.7c-0.6-0.4-1.3-0.2-1.9-0.4
		C635.4,215.1,636.5,214.6,635.9,213.7L635.9,213.7z"/>
	<path class="st1" d="M213.1,152.1c0.1-1.6,1-2.2,2.3-2.5c3.2-0.8,6.4-0.9,9.4,0.9c0.9,0.5,2.2,0.5,3.1,1.1c1.3,0.9,2.7,1.2,4,1.8
		c1.3,0.7,2.9,1,4.1,2.1c-2.4,1.2-4.8,0.3-7.1,0.8c-0.3-0.8,0.6-0.9,0.5-1.5c-0.3-0.6-0.8-0.5-1.3-0.5c-0.5-0.1-1.2-0.1-1.3-0.6
		c-0.3-1.3-1.2-1.2-2.3-1.3c-1.8-0.2-3.4-1.4-5.3-1.2c-2-2.2-3.4,0.1-5,0.7C213.8,151.9,213.4,152,213.1,152.1z"/>
	<path class="st1" d="M172.8,38.6c0.8-1,1.5-0.6,2.2-0.3c1.2,0.6,2.4,0.5,3.3-0.6c-0.3-0.7-1.3-0.4-1.7-1.4c2.9,0,5.8,0,8.8,0
		c-0.6,0.9-1.5,0.9-2.4,1.5c1.1,0.8,2.6,0.4,3.7,1.2c-0.8,1.2-1.1,2.9-3.2,2.1c-1.9,1.7-3.4,0.1-5-0.6c-0.7-0.3-1.4-0.6-2.2-0.6
		C175.1,39.9,174,39.3,172.8,38.6z"/>
	<path class="st1" d="M219.4,58.2c1.1,0,2.3-0.1,3.4,0.6c-2.5,1.4-4.5,0-6.6-1c-0.9,1.4-2.6,1.5-3.9,2.2c-0.9,0.5-1.3-0.4-1.6-1.1
		c-1.1,0.1-2.1,0.3-3.2,0.4c0.1-1.3,1.3-0.9,1.9-1.5c-0.2-0.8,0.1-1.6,0.6-2.4c1-1.6,1.3-1.6,2.3,0C214.4,55,218.7,56.7,219.4,58.2z
		"/>
	<path class="st1" d="M673.2,183.6c-0.6,0.5-0.6,1.2-1.2,1.5c-0.3-1.3-0.2-1.6,1-2.4c1-0.6,1.9-2,3.2-0.1c0.9-1.5,3.2-1.4,3.5-3.4
		c1.9,1.3,2.6,4.3,1.3,6.6c-0.5-0.2-0.5-0.7-0.8-1c-1.7,0.9,0.7,2.6-1,3.5c-0.4,0-0.4-0.9-1.4-0.8c-1.2,0.1-1.9-1.2-1.6-2.5
		c0.2-0.6,0.1-1-0.4-1.3c-0.4-0.3-0.8-0.3-1.2,0.1C674.3,184.2,673.8,183.9,673.2,183.6z"/>
	<path class="st1" d="M239.5,159.1c-0.1-0.7-0.2-1.3-0.3-1.8c-0.4-0.6-1.3-0.1-1.5-1c4.1-0.1,8.1-0.3,11.4,2.9c-0.2,0.5-0.4,1-1,0.7
		c-1.1-0.7-2.1-0.2-3.1-0.2c-1.3,0-2.1,0.3-2.7,1.6c-1.4-1.9-3.2-1.1-4.9-1.3c-1-0.1-1,0.1-1.8-0.9
		C236.8,158.5,238.1,159.5,239.5,159.1z"/>
	<path class="st1" d="M199.9,36.3c-2,2.1-4.3,2.9-7,2.3c-0.3,1.4-2,2.1-3,1.3c-0.7-0.6-1.8-1.3-1.4-2.3c0.4-0.9,1.2-1.8,2.4-1.9
		c0.6,0,1.2-0.1,1.8,0c1.9,0.2,3.7,0.4,5.6,0.2C198.8,35.8,199.4,35.9,199.9,36.3z"/>
	<path class="st1" d="M730.2,291.2c1.2,3.5-1.2,4.8-3.2,6.4c-1.1-0.2-2.3-0.5-2.6-1.6c-0.4-1.6-1.6-2.8-2.1-4.8
		C725.1,291.9,727.6,292.7,730.2,291.2z"/>
	<path class="st1" d="M143.7,28.2c-1.1,1.1-2,1.9-3.2,2.3c-0.8,0.2-1.3,0.3-1.9-0.3c-0.6-0.7-1.2-0.7-1.9-0.2
		c-1.5,1.3-3.1,2.3-5.2,1.1c-0.3-0.2-0.9,0.1-1.3,0.1c-0.7,0.1-1.4,0.2-1.9-0.6C133.1,28.9,138.2,28,143.7,28.2z"/>
	<path class="st1" d="M181,27.3c-1.4,0.6-2.5,0.7-3.4,0.1c-1.1-0.7-2.3-0.8-3.5-0.8c-1.4,0-2.9,0-4.3,0c-0.7,0-1.5,0-2.1-0.7
		c0.6-0.8,1.6,0.1,2.3-0.6c-1-0.8-2.4-0.4-3.4-1.1c1.7-0.5,3.5-0.7,5.1,0c1.5,0.6,3,0.8,4.5,0.8C178,25.1,179.6,25.6,181,27.3z"/>
	<path class="st1" d="M579.2,179.1c2,1.2,2.7,3.4,3.6,5.5c0.4,1.1-0.9,2.5-2.2,2.7c-1.1,0.2-1.7-0.2-2-1.7
		C578.2,183.4,577.6,181.2,579.2,179.1z"/>
	<path class="st1" d="M173,32.1c0.8-0.6,2-0.4,1.7-1.7c1.2-0.1,2.3,0.9,3.2-0.2c0.2-0.2,1-0.1,1.5,0c0.8,0.2,1.5,0.3,2.3,0
		c0.7-0.2,1.6-0.3,2.1,0.6c0.4,0.8,0,1.3-0.6,1.8c-0.2,0.2-0.2,0.6-0.3,1c-1.7-0.1-3.3,0.3-5-0.1c-0.3-0.6,0.6-0.7,0.3-1.3
		C176.7,31.7,174.9,32.9,173,32.1z"/>
	<path class="st1" d="M36.2,376.9c3.2-1.8,7.3-1.5,12,0.7C44.1,379.5,40.3,377.7,36.2,376.9z"/>
	<path class="st1" d="M172.7,360.8c5.2-0.9,10.1-1.5,14.9,0.5C182.7,362.3,177.9,361.6,172.7,360.8z"/>
	<path class="st1" d="M669.1,151.9c-2.4-3.2-1.7-5.6,2.1-7.4C671.6,147.3,670,149.4,669.1,151.9z"/>
	<path class="st1" d="M738.6,213.1c-0.7,0.2-1.3,0.2-2,0.8c-1.6,1.3-4,1-6.1-0.8c1.3-0.4,2.6-0.1,3.9-0.3c1.3-0.2,2.8-0.6,3.3-2
		c0.3-0.8,0.8-0.6,1.2-0.6c0.7,0.1,0.8,0.8,0.4,1.2C738.7,212,738.9,212.6,738.6,213.1z"/>
	<path class="st1" d="M644,160.2c-0.8-0.3-1.7-0.5-1.8-1.7c0-1.2,0.9-1.5,1.6-1.9c1.5-0.8,2.5-0.8,3.5,0
		C646.4,158,645.8,159.7,644,160.2z"/>
	<path class="st1" d="M683.4,219.7c-2.6,1.3-5.3,2.2-7.8,4.4C675.7,221.1,679.4,219.2,683.4,219.7z"/>
	<path class="st1" d="M182.1,25.4c2.8-0.4,5.2,0.2,7.8,0.8C187.2,27.9,184.3,27.5,182.1,25.4z"/>
	<path class="st1" d="M686.4,202.8c-2.3-1.7-2.8-4.3-1.5-6.3c0.1,0,0.3,0,0.3,0.1c0.3,0.2,0.3,0.6,0.3,0.9c0.4,0.4,0.8-0.5,1.2,0
		c0.6,0.7-1.3,1.6,0.3,2.2c-0.5,0.7-1.2-0.2-1.8,0.6C685.1,201,685.8,201.7,686.4,202.8z"/>
	<path class="st1" d="M674.7,180.5c-1.1-0.3-1.5-0.7-2-1.3c0.3-0.8,1.4-1.3,1-2.6c-0.7-0.1-1.1,0.7-1.9,0.6c0.1-0.9,0.1-1.8,0.2-2.7
		c1,0.4,2.1,0.4,2.6,1.7c0.1,0.4,0.5,0.7,0.3,1.1C674.4,178.2,674.3,179.2,674.7,180.5z"/>
	<path class="st1" d="M231.4,51.1c-0.3,0-0.5,0-0.6,0c-0.6,0-1.2-0.1-1.4-0.8c-0.1-0.7,0.5-1,1-1.3c0.9-0.5,1.9-0.6,3-0.2
		c0.5,0.2,0.8,0.4,0.8,0.9c0,0.5-0.2,0.9-0.7,1C232.7,51,232.1,51.2,231.4,51.1z"/>
	<path class="st1" d="M157.1,27.3c-2.4,1.3-4.9,1.3-7.5,0.4C152.1,26.9,154.6,27,157.1,27.3z"/>
	<path class="st1" d="M192.4,30.7c-2.2,0-4.4,0.1-6.7-1.4c2.5-0.3,4.7-0.1,6.9,0.6C192.5,30.2,192.4,30.5,192.4,30.7z"/>
	<path class="st1" d="M667.2,219.9c0.6-1.1,1.4-0.9,2.1-0.7c1.7,0.6,3.3,0.7,4.9-1.1C673.3,220.5,670.1,221.2,667.2,219.9z"/>
	<path class="st1" d="M662.5,218.2c1.1,0.9,2.4,0.4,2.9,1.8c-1.4,0.3-2.8,0.6-4.1,0.9c-0.5,0.1-1,0.1-1-0.6c0-0.7,0.4-0.9,1-0.9
		C661.8,219.4,662.9,220.2,662.5,218.2z"/>
	<path class="st1" d="M685.5,207.2c1.6,0,3.1-0.1,4.5,0c0.9,0.1,1.7,0.6,1.7,1.7c-0.2,0.3-0.5,0.2-0.7,0c-1.2-1.1-2.8-0.7-4.2-0.8
		C685.9,208.2,685.8,207.9,685.5,207.2z"/>
	<path class="st1" d="M97.4,71.6c1-0.9,2.5-0.6,2.7-0.1c0.5,1,1.6,2,1.1,3.6c-0.9-0.9-1.5-1.6-1.3-2.9
		C98.9,72.8,98.2,72.6,97.4,71.6z"/>
	<path class="st1" d="M57.2,73.3c1.4-1.1,3.7-1.5,4.9-0.8C58.4,73.9,58.4,73.9,57.2,73.3z"/>
	<path class="st1" d="M18.8,59.1c2.1-0.3,4.1-0.2,6.2,0.5c-1.6,0.7-1.6,0.7-2.7,0.3C21.1,59.4,19.9,59.6,18.8,59.1z"/>
	<path class="st1" d="M54.4,155.4c1.1,0.1,1.6,0.9,2.3,1.7c-0.8,0.5-1.4,0.9-2.1,1.3C53.7,157.4,53.8,156.5,54.4,155.4z"/>
	<path class="st1" d="M231.3,160.5c-1.5,0-3.1,0.9-4.2-1C228.7,159,230,159.7,231.3,160.5z"/>
	<path class="st1" d="M677.2,172.9c0.6-0.4,1.2-0.3,2-0.1c0.2,0.9,0.4,1.8,0.6,2.8C678.7,175.3,678.7,175.3,677.2,172.9z"/>
	<path class="st1" d="M669.2,223.2c-1.9,0.8-2.6-1.1-3.9-1C667,221.2,667.4,221.3,669.2,223.2z"/>
	<path class="st1" d="M349.6,40.3c-0.1-0.9-1.2-0.4-1.4-1.2c1.5-0.3,2.9-0.1,4.2,0.8c-0.2,0.7-0.7,0.5-1.1,0.5
		C350.8,40.3,350.2,39.6,349.6,40.3L349.6,40.3z"/>
	<path class="st1" d="M251.7,159.3c1.1,0,2.1-0.1,3.3,0.3c-0.7,1.4-1.9,0.9-2.8,1C251.4,160.7,251.6,159.9,251.7,159.3z"/>
	<path class="st1" d="M107.3,78.5c-1.3-0.6-2.8-1-2.8-3C106.1,75.8,106.7,77.2,107.3,78.5z"/>
	<path class="st1" d="M38.3,78.1c-0.1,0.2-0.1,0.6-0.2,0.7c-1.2,0.4-2.3,0.6-3.6,0.7C35.5,78.2,36.9,78.2,38.3,78.1L38.3,78.1z"/>
	<path class="st1" d="M105,80.7c1-0.8,1.8,0,2.7-0.4c0.1,0.9,0.1,1.5-0.7,1.7C105.9,82.3,105.6,81.4,105,80.7z"/>
	<path class="st1" d="M664.3,178.8c-0.4,1.5-1.6,2.2-3.2,3.2C661.8,180.1,663.3,179.7,664.3,178.8z"/>
	<path class="st1" d="M683.5,208.7c-1,0.6-1.8,0.5-2.5-0.5C682.4,207.3,682.4,207.3,683.5,208.7z"/>
	<path class="st1" d="M665,178c0.3-0.8,0.8-1.5,0.7-2.6c0.9,0.5,0.6,1.2,1,1.6C666.3,177.6,665.7,177.9,665,178z"/>
	<path class="st1" d="M201.7,135c0.5,0,1,0.1,1.3,0.7c-0.7,0.4-1.1,0-1.5-0.5C201.6,135.1,201.6,135.1,201.7,135z"/>
	<path class="st1" d="M695.6,226.3c-0.3-0.1-0.7-0.1-1-0.4c0.5-0.6,0.8-0.2,1.1,0.2C695.7,226.2,695.6,226.3,695.6,226.3z"/>
	<path class="st1" d="M116.4,43.8c-0.2,0-0.4,0-0.6-0.2c0.3-0.2,0.5-0.2,0.7,0.1C116.5,43.7,116.4,43.7,116.4,43.8z"/>
	<path class="st1" d="M232.5,117.2c0,0.2,0,0.6-0.3,0.4c-0.2-0.1-0.1-0.4,0.1-0.6C232.4,117.1,232.4,117.2,232.5,117.2z"/>
	<path class="st1" d="M38.3,78.2c0.1-0.1,0.1-0.1,0.2-0.2C38.2,77.8,38.3,78.1,38.3,78.2L38.3,78.2z"/>
	<path class="st1" d="M381.3,118.1c-0.1,0.1-0.2,0.2-0.3,0.2c-0.2-0.1-0.1-0.3,0-0.5C381.1,117.9,381.2,118,381.3,118.1z"/>
	<path class="st1" d="M421.6,109c1.5,0.8,0.8,2.1,0.9,3.1c0.2,1.6-1.5,1.1-2.2,1.9c-1.7-1.1,0.6-3.1-1.4-4
		C420.1,109.7,420.9,109.4,421.6,109z"/>
	<path class="st1" d="M477,121.1c-3.2,2.8-3.5,2.9-4.8,1.5C473.5,121.3,475.5,122.1,477,121.1z"/>
	<path class="st1" d="M459.2,122.2c-2.1,1.2-4,0.1-6-0.5C455.2,121.3,457.2,122.1,459.2,122.2z"/>
	<path class="st1" d="M421.7,104.9c0.7,1.4,0.3,2.5-0.3,3.7c-1.2-0.4-1.5-1.3-1.3-2.3C420.4,105.6,421.3,105.8,421.7,104.9z"/>
</g>


<line class="st2" y1="33.3" y2="33.3" x1="0" x2="800"/>
<line class="st2" y1="66.7" y2="66.7" x1="0" x2="800"/>
<line class="st2" y1="100.0" y2="100.0" x1="0" x2="800"/>
<line class="st2" y1="133.3" y2="133.3" x1="0" x2="800"/>
<line class="st2" y1="166.7" y2="166.7" x1="0" x2="800"/>
<line class="st2" y1="200.0" y2="200.0" x1="0" x2="800"/>
<line class="st2" y1="233.3" y2="233.3" x1="0" x2="800"/>
<line class="st2" y1="266.7" y2="266.7" x1="0" x2="800"/>
<line class="st2" y1="300.0" y2="300.0" x1="0" x2="800"/>
<line class="st2" y1="333.3" y2="333.3" x1="0" x2="800"/>
<line class="st2" y1="366.7" y2="366.7" x1="0" x2="800"/>
	
<line class="st2" x1="1.0" x2="1.0" y1="0" y2="400"/>
<line class="st2" x1="33.3" x2="33.3" y1="0" y2="400"/>
<line class="st2" x1="66.7" x2="66.7" y1="0" y2="400"/>
<line class="st2" x1="100.0" x2="100.0" y1="0" y2="400"/>
<line class="st2" x1="133.3" x2="133.3" y1="0" y2="400"/>
<line class="st2" x1="166.7" x2="166.7" y1="0" y2="400"/>
<line class="st2" x1="200.0" x2="200.0" y1="0" y2="400"/>
<line class="st2" x1="233.3" x2="233.3" y1="0" y2="400"/>
<line class="st2" x1="266.7" x2="266.7" y1="0" y2="400"/>
<line class="st2" x1="300.0" x2="300.0" y1="0" y2="400"/>
<line class="st2" x1="333.3" x2="333.3" y1="0" y2="400"/>
<line class="st2" x1="366.7" x2="366.7" y1="0" y2="400"/>
<line class="st2" x1="400.0" x2="400.0" y1="0" y2="400"/>
<line class="st2" x1="433.3" x2="433.3" y1="0" y2="400"/>
<line class="st2" x1="466.7" x2="466.7" y1="0" y2="400"/>
<line class="st2" x1="500.0" x2="500.0" y1="0" y2="400"/>
<line class="st2" x1="533.3" x2="533.3" y1="0" y2="400"/>
<line class="st2" x1="566.7" x2="566.7" y1="0" y2="400"/>
<line class="st2" x1="600.0" x2="600.0" y1="0" y2="400"/>
<line class="st2" x1="633.3" x2="633.3" y1="0" y2="400"/>
<line class="st2" x1="666.7" x2="666.7" y1="0" y2="400"/>
<line class="st2" x1="700.0" x2="700.0" y1="0" y2="400"/>
<line class="st2" x1="733.3" x2="733.3" y1="0" y2="400"/>
<line class="st2" x1="766.7" x2="766.7" y1="0" y2="400"/>	

	
	
	
</svg>
