<svg version="1.1" id="Ebene_1" xmlns="http://www.w3.org/2000/svg" xmlns:xlink="http://www.w3.org/1999/xlink" x="0px" y="0px"
	 width="194px" height="108px" viewBox="0 0 194 108" style="enable-background:new 0 0 194 108;" xml:space="preserve">
<g>
	<g>
		<path fill="#fff" d="M28.12,9.68c-1.28-0.79-2.76-1.19-4.4-1.19c-1.61,0-3.09,0.36-4.39,1.06c-1.16,0.63-2.14,1.5-2.92,2.58
			c-0.7-1.08-1.61-1.95-2.71-2.58c-1.23-0.71-2.64-1.06-4.17-1.06c-1.26,0-2.44,0.25-3.52,0.74c-0.85,0.39-1.61,0.91-2.28,1.56
			v-0.15c0-0.54-0.17-1-0.51-1.36C2.87,8.92,2.43,8.73,1.88,8.73c-0.54,0-0.99,0.18-1.35,0.54C0.18,9.63,0,10.09,0,10.63V29.9
			c0,0.55,0.18,1,0.54,1.34c0.35,0.34,0.81,0.51,1.34,0.51c0.54,0,0.99-0.17,1.33-0.52c0.34-0.34,0.51-0.79,0.51-1.34V17.77
			c0-1.66,0.52-3.04,1.54-4.1c1.02-1.06,2.34-1.59,3.93-1.59c1.52,0,2.72,0.52,3.66,1.6c0.94,1.07,1.41,2.56,1.41,4.41V29.9
			c0,0.55,0.18,1,0.54,1.34c0.35,0.34,0.81,0.51,1.34,0.51c0.54,0,0.99-0.17,1.33-0.52C17.82,30.9,18,30.45,18,29.9V18.01
			c-0.03-1.77,0.47-3.22,1.47-4.3c0.99-1.08,2.32-1.63,3.93-1.63c1.52,0,2.72,0.52,3.66,1.6c0.94,1.07,1.41,2.56,1.41,4.41V29.9
			c0,0.55,0.18,1,0.54,1.34c0.35,0.34,0.81,0.51,1.34,0.51c0.54,0,0.99-0.17,1.33-0.52c0.34-0.34,0.51-0.79,0.51-1.34V18.09
			c0-1.9-0.36-3.59-1.07-5.03C30.41,11.61,29.4,10.47,28.12,9.68z"/>
		<path fill="#fff" d="M40.43,8.73c-0.54,0-0.99,0.18-1.35,0.54c-0.35,0.36-0.53,0.82-0.53,1.36v19.23c0,0.55,0.18,1,0.53,1.36
			c0.35,0.36,0.81,0.54,1.35,0.54c0.54,0,0.99-0.18,1.33-0.54c0.34-0.36,0.51-0.81,0.51-1.36V10.63c0-0.54-0.17-1-0.51-1.35
			C41.43,8.92,40.98,8.73,40.43,8.73z"/>
		<path fill="#fff" d="M40.43,0c-0.7,0-1.3,0.23-1.79,0.7c-0.49,0.47-0.74,1.08-0.74,1.82c0,0.71,0.24,1.32,0.71,1.81
			c0.48,0.5,1.07,0.75,1.78,0.75c0.7,0,1.31-0.25,1.8-0.74c0.49-0.49,0.74-1.1,0.74-1.81c0-0.74-0.25-1.35-0.74-1.82
			C41.69,0.23,41.11,0,40.43,0z"/>
		<path fill="#fff" d="M65.18,9.75c-1.57-0.84-3.36-1.26-5.32-1.26c-1.53,0-2.96,0.3-4.27,0.89c-1.07,0.48-2.02,1.12-2.83,1.91v-0.65
			c0-0.54-0.17-1-0.51-1.36c-0.34-0.36-0.79-0.54-1.33-0.54c-0.54,0-0.99,0.18-1.35,0.54c-0.35,0.36-0.53,0.81-0.53,1.36V29.9
			c0,0.55,0.18,1,0.54,1.34c0.35,0.34,0.81,0.51,1.34,0.51c0.54,0,0.99-0.17,1.33-0.52c0.34-0.34,0.51-0.79,0.51-1.34V17.77
			c0-1.05,0.3-2.02,0.88-2.88c0.59-0.87,1.41-1.56,2.42-2.05c1.03-0.5,2.19-0.75,3.47-0.75c2.08,0,3.78,0.61,5.06,1.83
			c1.27,1.21,1.92,3,1.92,5.34V29.9c0,0.52,0.18,0.96,0.53,1.32c0.35,0.36,0.81,0.54,1.35,0.54c0.51,0,0.95-0.18,1.31-0.54
			c0.35-0.36,0.53-0.8,0.53-1.32V19.24c0-2.23-0.45-4.17-1.34-5.78C68,11.84,66.75,10.6,65.18,9.75z"/>
		<path fill="#fff" d="M78.39,0c-0.7,0-1.3,0.23-1.79,0.7c-0.49,0.47-0.74,1.08-0.74,1.82c0,0.71,0.24,1.32,0.71,1.81
			c0.48,0.5,1.07,0.75,1.78,0.75c0.7,0,1.31-0.25,1.8-0.74c0.49-0.49,0.74-1.1,0.74-1.81c0-0.74-0.25-1.35-0.74-1.82
			C79.65,0.23,79.06,0,78.39,0z"/>
		<path fill="#fff" d="M78.39,8.73c-0.54,0-0.99,0.18-1.35,0.54c-0.35,0.36-0.53,0.82-0.53,1.36v19.23c0,0.55,0.18,1,0.53,1.36
			c0.35,0.36,0.81,0.54,1.35,0.54c0.54,0,0.99-0.18,1.33-0.54c0.34-0.36,0.51-0.81,0.51-1.36V10.63c0-0.54-0.17-1-0.51-1.35
			C79.38,8.92,78.93,8.73,78.39,8.73z"/>
		<path fill="#fff" d="M103.15,10.06c-1.76-1.02-3.74-1.54-5.9-1.54c-2.16,0-4.14,0.52-5.9,1.54c-1.76,1.02-3.16,2.44-4.18,4.23
			c-1.01,1.79-1.52,3.8-1.52,5.97c0,2.17,0.5,4.18,1.48,5.95c0.98,1.77,2.35,3.19,4.05,4.21c1.7,1.02,3.64,1.54,5.74,1.54
			c1.8,0,3.47-0.39,4.97-1.16c1.24-0.63,2.3-1.47,3.19-2.5v1.6c0,0.55,0.18,1,0.54,1.34c0.35,0.34,0.81,0.51,1.34,0.51
			c0.54,0,0.99-0.18,1.35-0.54c0.35-0.36,0.53-0.8,0.53-1.32v-9.63c0-2.17-0.51-4.18-1.52-5.97
			C106.32,12.51,104.91,11.09,103.15,10.06z M97.25,28.5c-1.48,0-2.85-0.36-4.06-1.07c-1.21-0.71-2.17-1.7-2.86-2.94
			c-0.69-1.25-1.04-2.67-1.04-4.22c0-1.55,0.35-2.97,1.04-4.22c0.69-1.24,1.65-2.24,2.86-2.96C94.4,12.36,95.77,12,97.25,12
			c1.48,0,2.84,0.37,4.03,1.09c1.2,0.72,2.15,1.72,2.84,2.96c0.69,1.25,1.04,2.67,1.04,4.22c0,1.55-0.35,2.97-1.04,4.22
			c-0.69,1.24-1.64,2.23-2.84,2.94C100.09,28.14,98.74,28.5,97.25,28.5z"/>
		<path fill="#fff" d="M123.85,28h-1.1c-1.2,0-2.15-0.4-2.91-1.24c-0.76-0.83-1.14-1.91-1.14-3.22V12.9h4.3c0.51,0,0.93-0.16,1.25-0.48
			c0.31-0.32,0.47-0.71,0.47-1.18c0-0.49-0.16-0.9-0.47-1.22c-0.32-0.32-0.74-0.48-1.25-0.48h-4.3V3.5c0-0.54-0.18-1-0.53-1.36
			c-0.35-0.36-0.81-0.54-1.35-0.54c-0.54,0-0.99,0.18-1.33,0.54c-0.34,0.36-0.51,0.81-0.51,1.35v6.06h-2.35
			c-0.51,0-0.93,0.16-1.25,0.48c-0.31,0.32-0.47,0.73-0.47,1.22c0,0.46,0.16,0.86,0.47,1.17c0.31,0.32,0.73,0.48,1.25,0.48h2.35
			v10.65c0,1.55,0.33,2.95,0.99,4.18c0.66,1.23,1.59,2.22,2.77,2.94c1.18,0.72,2.53,1.09,4.02,1.09h0.85c0.56,0,1.04-0.18,1.42-0.53
			c0.39-0.36,0.58-0.8,0.58-1.33c0-0.54-0.16-0.99-0.48-1.35C124.8,28.19,124.37,28,123.85,28z"/>
		<path fill="#fff" d="M148.22,8.73c-0.54,0-0.99,0.17-1.33,0.52c-0.34,0.34-0.51,0.79-0.51,1.34v12.14c0,1.05-0.3,2.02-0.88,2.88
			c-0.59,0.87-1.41,1.56-2.42,2.05c-1.02,0.5-2.19,0.75-3.47,0.75c-2.08,0-3.78-0.61-5.06-1.83c-1.27-1.21-1.92-3-1.92-5.34V10.59
			c0-0.52-0.18-0.96-0.53-1.32c-0.36-0.36-0.81-0.54-1.35-0.54c-0.51,0-0.95,0.18-1.31,0.54c-0.35,0.36-0.53,0.8-0.53,1.32v10.66
			c0,2.23,0.45,4.18,1.34,5.78c0.89,1.62,2.14,2.86,3.72,3.71c1.57,0.84,3.36,1.26,5.32,1.26c1.53,0,2.96-0.3,4.27-0.89
			c1.07-0.48,2.02-1.12,2.83-1.91v0.65c0,0.54,0.17,1,0.51,1.35c0.34,0.36,0.79,0.54,1.33,0.54c0.54,0,0.99-0.18,1.35-0.54
			s0.53-0.82,0.53-1.36V10.59c0-0.55-0.18-1-0.54-1.34C149.21,8.91,148.76,8.73,148.22,8.73z"/>
		<path fill="#fff" d="M169.7,8.96c-0.7-0.32-1.65-0.48-2.83-0.48c-1.45,0-2.82,0.33-4.08,0.98c-0.99,0.51-1.86,1.2-2.58,2.05v-0.92
			c0-0.57-0.17-1.03-0.49-1.36c-0.33-0.33-0.78-0.5-1.35-0.5c-0.57,0-1.02,0.17-1.35,0.5c-0.33,0.33-0.49,0.79-0.49,1.36V29.9
			c0,0.57,0.17,1.03,0.49,1.36c0.33,0.33,0.78,0.5,1.35,0.5c0.57,0,1.02-0.17,1.35-0.5c0.33-0.33,0.49-0.79,0.49-1.36V17.64
			c0-1.67,0.6-2.99,1.83-4.03c1.23-1.04,2.84-1.57,4.79-1.57c0.42,0,0.73,0.01,0.95,0.04c0.61,0.06,1.04,0.08,1.29,0.08
			c0.47,0,0.83-0.08,1.1-0.25c0.3-0.18,0.52-0.5,0.64-0.94c0.04-0.11,0.06-0.27,0.06-0.46C170.87,9.84,170.48,9.32,169.7,8.96z"/>
		<path fill="#fff" d="M193.5,21.12c0.33-0.32,0.5-0.74,0.5-1.26c0-2.17-0.44-4.13-1.31-5.84c-0.87-1.71-2.12-3.07-3.71-4.03
			c-1.59-0.97-3.43-1.46-5.48-1.46c-2.11,0-4.01,0.5-5.66,1.5c-1.65,0.99-2.96,2.4-3.89,4.18c-0.93,1.77-1.4,3.81-1.4,6.06
			c0,2.23,0.5,4.26,1.48,6.03c0.98,1.78,2.37,3.18,4.12,4.17c1.74,0.99,3.75,1.49,5.96,1.49c1.3,0,2.68-0.26,4.09-0.78
			c1.41-0.52,2.59-1.17,3.51-1.97c0.36-0.33,0.54-0.72,0.54-1.16c0-0.49-0.21-0.94-0.65-1.35c-0.35-0.26-0.71-0.39-1.07-0.39
			c-0.44,0-0.87,0.16-1.29,0.48c-0.56,0.49-1.33,0.91-2.28,1.23c-0.95,0.33-1.91,0.5-2.85,0.5c-2.19,0-4.04-0.68-5.49-2.01
			c-1.38-1.27-2.21-2.92-2.47-4.93h16.09C192.75,21.59,193.17,21.43,193.5,21.12z M183.5,11.96c1.94,0,3.56,0.62,4.79,1.84
			c1.18,1.16,1.9,2.7,2.15,4.57h-14.2c0.33-1.87,1.11-3.4,2.33-4.57C179.87,12.58,181.52,11.96,183.5,11.96z"/>
	</g>
	<path fill="#fff" d="M38.48,103.79c0.43,0.43,0.64,0.94,0.64,1.51c0,0.63-0.21,1.14-0.64,1.55c-0.43,0.41-0.93,0.61-1.5,0.61H2.64
		c-0.62,0-1.13-0.2-1.53-0.61c-0.4-0.41-0.61-0.92-0.61-1.55V55.39c0-0.62,0.2-1.14,0.61-1.55c0.4-0.41,0.92-0.61,1.53-0.61h34.34
		c0.57,0,1.07,0.2,1.5,0.61c0.43,0.41,0.64,0.92,0.64,1.55c0,0.58-0.21,1.08-0.64,1.51c-0.43,0.43-0.93,0.65-1.5,0.65H4.78v20.6
		h23.63c0.62,0,1.13,0.2,1.53,0.61c0.4,0.41,0.61,0.92,0.61,1.55c0,0.63-0.2,1.15-0.61,1.58c-0.4,0.43-0.92,0.65-1.53,0.65H4.78
		v20.6h32.2C37.55,103.14,38.05,103.36,38.48,103.79z"/>
	<path fill="#fff" d="M73.83,70.27c3.05,1.75,5.44,4.17,7.18,7.24c1.74,3.07,2.61,6.5,2.61,10.3v17.5c0,0.63-0.19,1.14-0.57,1.55
		c-0.38,0.41-0.9,0.61-1.57,0.61c-0.62,0-1.13-0.2-1.54-0.61c-0.4-0.41-0.61-0.92-0.61-1.55v-5.62c-1.57,2.54-3.72,4.55-6.46,6.01
		c-2.74,1.46-5.8,2.2-9.17,2.2c-3.76,0-7.16-0.88-10.21-2.63c-3.05-1.75-5.44-4.16-7.18-7.24c-1.74-3.07-2.61-6.48-2.61-10.22
		c0-3.79,0.87-7.22,2.61-10.3c1.74-3.07,4.13-5.48,7.18-7.24c3.05-1.75,6.45-2.63,10.21-2.63C67.4,67.64,70.78,68.52,73.83,70.27z
		 M71.68,101.77c2.38-1.39,4.25-3.31,5.6-5.76c1.36-2.45,2.04-5.18,2.04-8.21c0-3.02-0.68-5.76-2.04-8.21
		c-1.36-2.45-3.22-4.38-5.6-5.8c-2.38-1.42-5.05-2.12-8-2.12c-2.95,0-5.62,0.71-8,2.12c-2.38,1.42-4.26,3.35-5.64,5.8
		c-1.38,2.45-2.07,5.18-2.07,8.21c0,3.02,0.69,5.76,2.07,8.21c1.38,2.45,3.26,4.37,5.64,5.76c2.38,1.39,5.04,2.09,8,2.09
		C66.64,103.86,69.3,103.17,71.68,101.77z"/>
	<path fill="#fff" d="M116.96,70.02c0,0.24-0.03,0.43-0.07,0.58c-0.14,0.53-0.37,0.9-0.68,1.12s-0.73,0.32-1.25,0.32
		c-0.43,0-0.99-0.05-1.68-0.14c-0.69-0.1-1.27-0.14-1.75-0.14c-2.38,0-4.5,0.5-6.35,1.51c-1.86,1.01-3.31,2.4-4.36,4.18
		c-1.05,1.78-1.57,3.77-1.57,5.98v21.89c0,0.63-0.19,1.14-0.57,1.55c-0.38,0.41-0.9,0.61-1.57,0.61c-0.62,0-1.13-0.2-1.54-0.61
		c-0.4-0.41-0.61-0.92-0.61-1.55V70.24c0-0.67,0.2-1.2,0.61-1.58c0.4-0.38,0.92-0.58,1.54-0.58c0.67,0,1.19,0.19,1.57,0.58
		c0.38,0.38,0.57,0.91,0.57,1.58v4.46c1.38-2.21,3.14-3.94,5.28-5.18c2.14-1.25,4.47-1.87,7-1.87
		C115.15,67.64,116.96,68.44,116.96,70.02z"/>
	<path fill="#fff" d="M147.58,103.68c0.4,0.41,0.61,0.95,0.61,1.62c0,0.63-0.2,1.14-0.61,1.55c-0.4,0.41-0.94,0.61-1.61,0.61h-1.64
		c-2.62,0-4.95-0.6-7-1.8c-2.05-1.2-3.64-2.84-4.78-4.93c-1.14-2.09-1.71-4.45-1.71-7.09V73.4h-5.57c-0.57,0-1.04-0.18-1.39-0.54
		c-0.36-0.36-0.54-0.83-0.54-1.4s0.18-1.04,0.54-1.4c0.36-0.36,0.82-0.54,1.39-0.54h5.57V57.78c0-0.67,0.2-1.21,0.61-1.62
		c0.4-0.41,0.92-0.61,1.53-0.61c0.67,0,1.2,0.21,1.61,0.61c0.4,0.41,0.61,0.95,0.61,1.62v11.74h9.43c0.57,0,1.04,0.18,1.39,0.54
		c0.36,0.36,0.54,0.83,0.54,1.4s-0.18,1.04-0.54,1.4c-0.36,0.36-0.82,0.54-1.39,0.54h-9.43v20.23c0,2.78,0.86,5.05,2.57,6.8
		c1.71,1.75,3.93,2.63,6.64,2.63h1.57C146.64,103.07,147.18,103.27,147.58,103.68z"/>
	<path fill="#fff" d="M184.17,69.73c2.74,1.44,4.88,3.54,6.43,6.3c1.55,2.76,2.32,6.06,2.32,9.9v19.37c0,0.63-0.2,1.14-0.61,1.55
		c-0.4,0.41-0.92,0.61-1.53,0.61c-0.62,0-1.13-0.2-1.53-0.61c-0.4-0.41-0.61-0.92-0.61-1.55V85.93c0-4.56-1.27-8.04-3.82-10.44
		c-2.55-2.4-5.87-3.6-9.96-3.6c-2.52,0-4.82,0.49-6.89,1.48c-2.07,0.98-3.7,2.35-4.89,4.1c-1.19,1.75-1.78,3.68-1.78,5.8v22.03
		c0,0.63-0.19,1.14-0.57,1.55c-0.38,0.41-0.9,0.61-1.57,0.61c-0.62,0-1.13-0.2-1.53-0.61c-0.4-0.41-0.61-0.92-0.61-1.55V54.39
		c0-0.67,0.2-1.2,0.61-1.58c0.4-0.38,0.92-0.58,1.53-0.58c0.67,0,1.19,0.19,1.57,0.58c0.38,0.38,0.57,0.91,0.57,1.58v19.59
		c1.62-2.02,3.59-3.59,5.93-4.72c2.33-1.13,4.88-1.69,7.64-1.69C178.32,67.57,181.43,68.29,184.17,69.73z"/>
</g>
</svg>
